<svg xmlns:mydata="http://www.w3.org/2000/svg" mydata:contrastcolor="11111f" mydata:template="Contrast" mydata:presentation="2.5" mydata:layouttype="undefined" mydata:specialfontid="undefined" mydata:id1="789" mydata:id2="75" mydata:companyname="educardoso" xmlns="http://www.w3.org/2000/svg" viewBox="0 0 550 470" mydata:companytagline="where there is a shell there's a way"><g data-paper-data="{&quot;isGlobalGroup&quot;:true,&quot;bounds&quot;:{&quot;x&quot;:75.74526789437584,&quot;y&quot;:115.00000000000003,&quot;width&quot;:398.50946421124826,&quot;height&quot;:239.99999999999997}}" fill-rule="none" stroke-miterlimit="10" font-family="none" font-weight="none" font-size="none" text-anchor="none" style="mix-blend-mode:normal"><g data-paper-data="{&quot;isSecondaryText&quot;:true}" fill-rule="nonzero"><path d="m87.566 346.818-3.962 8.074h-.84l-1.108-2.228-1.088 2.228h-.84l-3.983-8.074h1.83l2.627 5.329.593-1.227-2.014-4.102h1.723l1.152 2.358 1.173-2.358h1.712l-2.024 4.102.603 1.238 2.627-5.34z" data-paper-data="{&quot;glyphName&quot;:&quot;W&quot;,&quot;glyphIndex&quot;:0,&quot;firstGlyphOfWord&quot;:true,&quot;word&quot;:1}"/><path d="M100.652 354.892h-1.615v-3.348h-2.509v3.348h-1.614v-8.074h1.614v3.359h2.509v-3.36h1.615z" data-paper-data="{&quot;glyphName&quot;:&quot;H&quot;,&quot;glyphIndex&quot;:1,&quot;word&quot;:1}"/><path d="M112.705 354.892h-4.554v-8.074h4.554v1.496h-2.939v1.863h2.595v1.356h-2.595v1.863h2.94z" data-paper-data="{&quot;glyphName&quot;:&quot;E&quot;,&quot;glyphIndex&quot;:2,&quot;word&quot;:1}"/><path d="M125.627 354.892h-1.755l-1.442-3.122h-1.077v3.122h-1.583v-8.074h3.036c.309 0 .603.064.883.194.28.129.522.306.727.533.204.226.368.49.49.79.122.302.183.625.183.97 0 .43-.095.827-.286 1.19-.19.362-.457.658-.802.888zm-2.1-5.587a.933.933 0 0 0-.059-.323 1.129 1.129 0 0 0-.156-.29.805.805 0 0 0-.231-.21.528.528 0 0 0-.275-.082h-1.453v1.777h1.453a.528.528 0 0 0 .275-.08.84.84 0 0 0 .231-.205c.065-.083.117-.176.156-.28a.861.861 0 0 0 .06-.307z" data-paper-data="{&quot;glyphName&quot;:&quot;R&quot;,&quot;glyphIndex&quot;:3,&quot;word&quot;:1}"/><path d="M136.634 354.892h-4.554v-8.074h4.554v1.496h-2.939v1.863h2.595v1.356h-2.595v1.863h2.94z" data-paper-data="{&quot;glyphName&quot;:&quot;E&quot;,&quot;glyphIndex&quot;:4,&quot;lastGlyphOfWord&quot;:true,&quot;word&quot;:1}"/><path d="M156.16 348.325h-2.325v6.567h-1.626v-6.567h-2.326v-1.507h6.277z" data-paper-data="{&quot;glyphName&quot;:&quot;T&quot;,&quot;glyphIndex&quot;:5,&quot;firstGlyphOfWord&quot;:true,&quot;word&quot;:2}"/><path d="M168.842 354.892h-1.614v-3.348h-2.509v3.348h-1.615v-8.074h1.615v3.359h2.509v-3.36h1.614z" data-paper-data="{&quot;glyphName&quot;:&quot;H&quot;,&quot;glyphIndex&quot;:6,&quot;word&quot;:2}"/><path d="M180.896 354.892h-4.554v-8.074h4.554v1.496h-2.94v1.863h2.595v1.356h-2.594v1.863h2.939z" data-paper-data="{&quot;glyphName&quot;:&quot;E&quot;,&quot;glyphIndex&quot;:7,&quot;word&quot;:2}"/><path d="M193.818 354.892h-1.755l-1.443-3.122h-1.076v3.122h-1.583v-8.074h3.036c.309 0 .603.064.883.194.28.129.522.306.726.533.205.226.368.49.49.79.122.302.183.625.183.97 0 .43-.095.827-.285 1.19-.19.362-.458.658-.802.888zm-2.1-5.587a.933.933 0 0 0-.059-.323 1.129 1.129 0 0 0-.156-.29.805.805 0 0 0-.232-.21.528.528 0 0 0-.274-.082h-1.453v1.777h1.453a.528.528 0 0 0 .274-.08.84.84 0 0 0 .232-.205c.065-.083.117-.176.156-.28a.861.861 0 0 0 .06-.307z" data-paper-data="{&quot;glyphName&quot;:&quot;R&quot;,&quot;glyphIndex&quot;:8,&quot;word&quot;:2}"/><path d="M204.825 354.892h-4.554v-8.074h4.554v1.496h-2.94v1.863h2.595v1.356h-2.594v1.863h2.939z" data-paper-data="{&quot;glyphName&quot;:&quot;E&quot;,&quot;glyphIndex&quot;:9,&quot;lastGlyphOfWord&quot;:true,&quot;word&quot;:2}"/><path d="M219.625 354.892h-1.615v-8.074h1.615z" data-paper-data="{&quot;glyphName&quot;:&quot;I&quot;,&quot;glyphIndex&quot;:10,&quot;firstGlyphOfWord&quot;:true,&quot;word&quot;:3}"/><path d="M230.93 352.513c0 .366-.07.7-.21 1.001-.14.302-.33.564-.571.786a2.59 2.59 0 0 1-.834.517c-.316.122-.65.183-1.002.183-.323 0-.62-.05-.893-.15a2.403 2.403 0 0 1-.732-.426 2.667 2.667 0 0 1-.555-.657 3.133 3.133 0 0 1-.35-.834l1.443-.668c.072.28.197.526.377.738.18.212.427.318.743.318.107 0 .222-.02.344-.06.122-.04.232-.093.329-.161a.904.904 0 0 0 .242-.253.604.604 0 0 0 .097-.334.533.533 0 0 0-.232-.436 3.129 3.129 0 0 0-.576-.34c-.23-.107-.48-.222-.753-.344a3.375 3.375 0 0 1-.754-.463 2.375 2.375 0 0 1-.576-.694c-.154-.276-.232-.623-.232-1.039 0-.323.06-.635.178-.936.119-.302.282-.567.49-.797.208-.23.456-.413.743-.55.287-.136.6-.204.936-.204.56 0 1.041.156 1.443.469.402.312.696.726.883 1.243l-1.475.689a1.204 1.204 0 0 0-.296-.506.7.7 0 0 0-.522-.215.773.773 0 0 0-.576.237.787.787 0 0 0-.232.57c0 .172.077.314.232.425.154.112.346.22.576.323.23.104.48.218.753.34.273.122.524.278.754.468.23.19.422.425.576.705.154.28.231.632.231 1.055z" data-paper-data="{&quot;glyphName&quot;:&quot;S&quot;,&quot;glyphIndex&quot;:11,&quot;lastGlyphOfWord&quot;:true,&quot;word&quot;:3}"/><path d="M252.092 354.892h-1.68l-.645-1.55h-2.864l-.635 1.55h-1.701l3.38-8.074h.775zm-2.864-2.863-.893-2.154-.926 2.154z" data-paper-data="{&quot;glyphName&quot;:&quot;A&quot;,&quot;glyphIndex&quot;:12,&quot;firstGlyphOfWord&quot;:true,&quot;lastGlyphOfWord&quot;:true,&quot;word&quot;:4}"/><path d="M270.738 352.513c0 .366-.07.7-.21 1.001-.14.302-.33.564-.57.786a2.59 2.59 0 0 1-.835.517c-.316.122-.65.183-1.001.183-.323 0-.621-.05-.894-.15a2.403 2.403 0 0 1-.732-.426 2.667 2.667 0 0 1-.554-.657 3.133 3.133 0 0 1-.35-.834l1.442-.668c.072.28.198.526.377.738.18.212.427.318.743.318.108 0 .223-.02.345-.06.122-.04.231-.093.328-.161a.904.904 0 0 0 .242-.253.604.604 0 0 0 .097-.334.533.533 0 0 0-.231-.436 3.129 3.129 0 0 0-.576-.34c-.23-.107-.481-.222-.754-.344a3.375 3.375 0 0 1-.754-.463 2.375 2.375 0 0 1-.576-.694c-.154-.276-.231-.623-.231-1.039 0-.323.06-.635.178-.936.118-.302.281-.567.49-.797.208-.23.455-.413.742-.55.287-.136.6-.204.937-.204.56 0 1.04.156 1.443.469.401.312.696.726.882 1.243l-1.475.689a1.204 1.204 0 0 0-.296-.506.7.7 0 0 0-.522-.215.773.773 0 0 0-.576.237.787.787 0 0 0-.231.57c0 .172.077.314.231.425.155.112.347.22.576.323.23.104.481.218.754.34.273.122.524.278.753.468.23.19.422.425.576.705.155.28.232.632.232 1.055z" data-paper-data="{&quot;glyphName&quot;:&quot;S&quot;,&quot;glyphIndex&quot;:13,&quot;firstGlyphOfWord&quot;:true,&quot;word&quot;:5}"/><path d="M283.641 354.892h-1.615v-3.348h-2.508v3.348h-1.615v-8.074h1.615v3.359h2.508v-3.36h1.615z" data-paper-data="{&quot;glyphName&quot;:&quot;H&quot;,&quot;glyphIndex&quot;:14,&quot;word&quot;:5}"/><path d="M295.695 354.892h-4.554v-8.074h4.554v1.496h-2.94v1.863h2.595v1.356h-2.595v1.863h2.94z" data-paper-data="{&quot;glyphName&quot;:&quot;E&quot;,&quot;glyphIndex&quot;:15,&quot;word&quot;:5}"/><path d="M306.818 354.892h-4.371v-8.074h1.615v6.578h2.756z" data-paper-data="{&quot;glyphName&quot;:&quot;L&quot;,&quot;glyphIndex&quot;:16,&quot;word&quot;:5}"/><path d="M317.596 354.892h-4.37v-8.074h1.614v6.578h2.756z" data-paper-data="{&quot;glyphName&quot;:&quot;L&quot;,&quot;glyphIndex&quot;:17,&quot;lastGlyphOfWord&quot;:true,&quot;word&quot;:5}"/><path d="M336.777 348.325h-2.325v6.567h-1.626v-6.567h-2.325v-1.507h6.276z" data-paper-data="{&quot;glyphName&quot;:&quot;T&quot;,&quot;glyphIndex&quot;:18,&quot;firstGlyphOfWord&quot;:true,&quot;word&quot;:6}"/><path d="M349.46 354.892h-1.615v-3.348h-2.509v3.348h-1.614v-8.074h1.614v3.359h2.509v-3.36h1.615z" data-paper-data="{&quot;glyphName&quot;:&quot;H&quot;,&quot;glyphIndex&quot;:19,&quot;word&quot;:6}"/><path d="M361.513 354.892h-4.554v-8.074h4.554v1.496h-2.939v1.863h2.595v1.356h-2.595v1.863h2.94z" data-paper-data="{&quot;glyphName&quot;:&quot;E&quot;,&quot;glyphIndex&quot;:20,&quot;word&quot;:6}"/><path d="M374.435 354.892h-1.755l-1.442-3.122h-1.077v3.122h-1.583v-8.074h3.036c.309 0 .603.064.883.194.28.129.522.306.727.533.204.226.368.49.49.79.122.302.183.625.183.97 0 .43-.095.827-.286 1.19-.19.362-.457.658-.802.888zm-2.1-5.587a.933.933 0 0 0-.059-.323 1.129 1.129 0 0 0-.156-.29.805.805 0 0 0-.231-.21.528.528 0 0 0-.275-.082h-1.453v1.777h1.453a.528.528 0 0 0 .275-.08.84.84 0 0 0 .231-.205c.065-.083.117-.176.156-.28a.861.861 0 0 0 .06-.307z" data-paper-data="{&quot;glyphName&quot;:&quot;R&quot;,&quot;glyphIndex&quot;:21,&quot;word&quot;:6}"/><path d="M385.442 354.892h-4.554v-8.074h4.554v1.496h-2.939v1.863h2.595v1.356h-2.595v1.863h2.94z" data-paper-data="{&quot;glyphName&quot;:&quot;E&quot;,&quot;glyphIndex&quot;:22,&quot;word&quot;:6}"/><path d="m392.287 346.172-.215 3.09h-.786l-.216-3.09z" data-paper-data="{&quot;glyphName&quot;:&quot;'&quot;,&quot;glyphIndex&quot;:23,&quot;word&quot;:6}"/><path d="M403.049 352.513c0 .366-.07.7-.21 1.001-.14.302-.33.564-.571.786a2.59 2.59 0 0 1-.834.517c-.316.122-.65.183-1.002.183-.323 0-.62-.05-.893-.15a2.403 2.403 0 0 1-.732-.426 2.667 2.667 0 0 1-.555-.657 3.133 3.133 0 0 1-.35-.834l1.443-.668c.072.28.197.526.377.738.18.212.427.318.743.318.107 0 .222-.02.344-.06.122-.04.232-.093.329-.161a.904.904 0 0 0 .242-.253.604.604 0 0 0 .097-.334.533.533 0 0 0-.232-.436 3.129 3.129 0 0 0-.576-.34c-.23-.107-.48-.222-.753-.344a3.375 3.375 0 0 1-.754-.463 2.375 2.375 0 0 1-.576-.694c-.154-.276-.231-.623-.231-1.039 0-.323.059-.635.177-.936.119-.302.282-.567.49-.797.208-.23.456-.413.743-.55.287-.136.6-.204.937-.204.56 0 1.04.156 1.442.469.402.312.696.726.883 1.243l-1.475.689a1.204 1.204 0 0 0-.296-.506.7.7 0 0 0-.522-.215.773.773 0 0 0-.576.237.787.787 0 0 0-.232.57c0 .172.078.314.232.425.154.112.346.22.576.323.23.104.48.218.753.34.273.122.524.278.754.468.23.19.422.425.576.705.154.28.232.632.232 1.055z" data-paper-data="{&quot;glyphName&quot;:&quot;S&quot;,&quot;glyphIndex&quot;:24,&quot;lastGlyphOfWord&quot;:true,&quot;word&quot;:6}"/><path d="M424.211 354.892h-1.68l-.645-1.55h-2.864l-.635 1.55h-1.701l3.38-8.074h.776zm-2.863-2.863-.894-2.154-.926 2.154z" data-paper-data="{&quot;glyphName&quot;:&quot;A&quot;,&quot;glyphIndex&quot;:25,&quot;firstGlyphOfWord&quot;:true,&quot;lastGlyphOfWord&quot;:true,&quot;word&quot;:7}"/><path d="m449.852 346.818-3.962 8.074h-.84l-1.109-2.228-1.087 2.228h-.84l-3.983-8.074h1.83l2.627 5.329.592-1.227-2.013-4.102h1.722l1.152 2.358 1.174-2.358h1.712l-2.024 4.102.603 1.238 2.626-5.34z" data-paper-data="{&quot;glyphName&quot;:&quot;W&quot;,&quot;glyphIndex&quot;:26,&quot;firstGlyphOfWord&quot;:true,&quot;word&quot;:8}"/><path d="M462.653 354.892h-1.68l-.646-1.55h-2.864l-.635 1.55h-1.7l3.38-8.074h.775zm-2.864-2.863-.894-2.154-.926 2.154z" data-paper-data="{&quot;glyphName&quot;:&quot;A&quot;,&quot;glyphIndex&quot;:27,&quot;word&quot;:8}"/><path d="m474.255 346.818-2.713 4.274v3.8h-1.615v-3.8l-2.702-4.274h1.937l1.572 2.498 1.583-2.498z" data-paper-data="{&quot;glyphName&quot;:&quot;Y&quot;,&quot;glyphIndex&quot;:28,&quot;lastGlyphOfWord&quot;:true,&quot;word&quot;:8}"/></g><g data-paper-data="{&quot;isPrimaryText&quot;:true}" fill-rule="nonzero"><path d="M98.768 317.47v-6.889h-.726l-.241.363c-.665 1.209-3.203 2.055-6.285 2.055H84.87v-16.074h8.64c3.626 0 6.89 1.51 8.279 3.747l.423.664h.665v-6.103H75.745v.907c1.571 0 2.417 1.269 2.417 3.927v30.213c0 2.66-.846 3.928-2.417 3.928v.906h27.192l.181-.846c.242-1.57.605-3.686.907-5.257h-.665l-.544.665c-1.813 2.236-5.317 3.747-8.943 3.747H84.87V314.69h6.646c3.082 0 5.56.967 6.285 2.357l.241.423z" data-paper-data="{&quot;glyphName&quot;:&quot;E&quot;,&quot;glyphIndex&quot;:0,&quot;firstGlyphOfWord&quot;:true,&quot;word&quot;:1}"/><path d="M109.826 296.14c1.57 0 2.417 1.269 2.417 3.927v30.213c0 2.66-.846 3.928-2.417 3.928v.906h17.765c11.783 0 19.638-7.976 19.638-19.94 0-11.965-8.701-19.94-21.814-19.94h-15.59zm9.124 37.283v-36.498h6.465c9.064 0 15.107 7.312 15.107 18.249 0 10.937-5.197 18.249-12.931 18.249z" data-paper-data="{&quot;glyphName&quot;:&quot;D&quot;,&quot;glyphIndex&quot;:1,&quot;word&quot;:1}"/><path d="M186.204 295.233h-7.674v.907h.423c1.39 0 2.356 1.57 2.477 3.988l-.06 22.962c0 5.921-3.142 9.91-11.179 9.91-6.586 0-9.124-3.868-9.124-9.73v-23.263c0-2.659.846-3.928 2.417-3.928v-.906h-11.542v.906c1.572 0 2.417 1.27 2.417 3.928v21.935c0 8.036 4.17 13.414 14.805 13.414 10.272 0 14.26-4.653 14.26-11.602v-23.143c0-2.719.967-4.532 2.357-4.532h.423z" data-paper-data="{&quot;glyphName&quot;:&quot;U&quot;,&quot;glyphIndex&quot;:2,&quot;word&quot;:1}"/><path d="M230.436 304.055v-5.559c-3.686-2.115-9.79-3.565-15.228-3.565-13.052 0-21.753 8.097-21.753 20.243 0 12.145 8.701 20.243 21.753 20.243 5.439 0 11.542-1.45 15.228-3.566l-.484-.785.423.785v-5.559h-.785c-.242.423-.544.907-.786 1.33-2.235 3.806-7.553 6.103-13.716 6.103-8.58 0-14.321-7.433-14.321-18.551 0-11.119 5.74-18.55 14.32-18.55.303 0 4.351.12 4.351.301 3.868.544 7.614 2.84 9.306 5.801.242.423.544.907.785 1.33z" data-paper-data="{&quot;glyphName&quot;:&quot;C&quot;,&quot;glyphIndex&quot;:3,&quot;word&quot;:1}"/><path d="M259.561 335.114h12.448v-.906c-1.51 0-2.78-1.269-3.867-3.686l-15.349-36.195h-1.691l-13.113 36.316c-.967 2.417-2.175 3.625-3.807 3.625v.907h7.916v-.907h-.483c-1.632 0-2.115-1.752-1.27-4.41l3.022-8.702h13.535c1.209 3.082 2.538 6.224 3.747 9.245.967 2.357.665 3.928-.786 3.928h-.423zm-3.323-15.65H243.97l5.62-16.194z" data-paper-data="{&quot;glyphName&quot;:&quot;A&quot;,&quot;glyphIndex&quot;:4,&quot;word&quot;:1}"/><path d="M274.849 296.14c1.571 0 2.417 1.269 2.417 3.927v30.213c0 2.66-.846 3.928-2.417 3.928v.906h11.541v-.906c-1.57 0-2.417-1.269-2.417-3.928v-14.079h4.35c1.632 2.296 4.835 6.768 8.944 12.508 4.411 6.164 4.894 6.405 12.266 6.405h2.357v-1.329c-2.659 0-2.78-.06-5.499-3.807-5.136-7.25-9.003-12.448-10.574-14.502 5.861-1.45 9.487-5.076 9.487-9.97 0-6.164-5.68-10.273-14.2-10.273h-16.315zm14.804 18.37h-5.74v-17.585h7.19c4.29 0 7.13 3.444 7.13 8.58 0 5.379-3.443 9.004-8.58 9.004z" data-paper-data="{&quot;glyphName&quot;:&quot;R&quot;,&quot;glyphIndex&quot;:5,&quot;word&quot;:1}"/><path d="M314.186 296.14c1.571 0 2.417 1.269 2.417 3.927v30.213c0 2.66-.846 3.928-2.417 3.928v.906h17.766c11.783 0 19.638-7.976 19.638-19.94 0-11.965-8.701-19.94-21.814-19.94h-15.59zm9.125 37.283v-36.498h6.465c9.064 0 15.107 7.312 15.107 18.249 0 10.937-5.197 18.249-12.931 18.249z" data-paper-data="{&quot;glyphName&quot;:&quot;D&quot;,&quot;glyphIndex&quot;:6,&quot;word&quot;:1}"/><path d="M364.823 315.174c0-10.03 4.29-18.55 12.63-18.55 8.278 0 12.568 8.52 12.568 18.55 0 10.03-4.29 18.55-12.569 18.55-8.339 0-12.629-8.52-12.629-18.55zm-7.432 0c0 10.937 6.828 20.243 20.061 20.243 13.173 0 20.001-9.306 20.001-20.243s-6.828-20.243-20-20.243c-13.234 0-20.062 9.306-20.062 20.243z" data-paper-data="{&quot;glyphName&quot;:&quot;O&quot;,&quot;glyphIndex&quot;:7,&quot;word&quot;:1}"/><path d="M426.156 303.814v-6.043c-2.961-1.692-7.01-2.84-10.212-2.84-7.735 0-12.932 4.834-12.932 12.085 0 4.532 3.989 8.823 10.031 10.756 6.526 2.055 10.877 5.68 10.877 9.004 0 4.169-3.324 6.949-8.278 6.949-.846 0-1.753-.06-2.66-.182-3.504-.604-6.827-2.78-8.459-5.62-.242-.422-.544-.906-.785-1.329h-.786v6.043c2.96 1.692 8.037 2.84 12.75 2.84 7.855 0 13.052-4.592 13.052-11.42 0-4.835-4.17-9.427-10.454-11.421-6.344-1.994-10.574-5.318-10.574-8.218 0-4.653 3.202-7.795 7.976-7.795 0 0 2.538.242 2.477.363 2.297.543 4.714 2.477 6.043 4.834.363.604.846 1.45 1.209 2.054z" data-paper-data="{&quot;glyphName&quot;:&quot;S&quot;,&quot;glyphIndex&quot;:8,&quot;word&quot;:1}"/><path d="M441.625 315.174c0-10.03 4.29-18.55 12.629-18.55 8.278 0 12.568 8.52 12.568 18.55 0 10.03-4.29 18.55-12.568 18.55-8.34 0-12.63-8.52-12.63-18.55zm-7.433 0c0 10.937 6.828 20.243 20.062 20.243 13.173 0 20-9.306 20-20.243s-6.827-20.243-20-20.243c-13.234 0-20.062 9.306-20.062 20.243z" data-paper-data="{&quot;glyphName&quot;:&quot;O&quot;,&quot;glyphIndex&quot;:9,&quot;lastGlyphOfWord&quot;:true,&quot;word&quot;:1}"/></g><g data-paper-data="{&quot;isIcon&quot;:&quot;true&quot;,&quot;iconType&quot;:&quot;icon&quot;,&quot;rawIconId&quot;:&quot;37726&quot;,&quot;selectedEffects&quot;:{&quot;container&quot;:&quot;&quot;,&quot;transformation&quot;:&quot;&quot;,&quot;pattern&quot;:&quot;&quot;},&quot;isDetailed&quot;:false,&quot;fillRule&quot;:&quot;evenodd&quot;,&quot;bounds&quot;:{&quot;x&quot;:199.57794996799467,&quot;y&quot;:115.00000000000003,&quot;width&quot;:150.84410006401058,&quot;height&quot;:150.56901323468307},&quot;iconStyle&quot;:&quot;standalone&quot;,&quot;suitableAsStandaloneIcon&quot;:true}" fill-rule="evenodd"><path d="m332.529 141.674-8.83 8.83c8.93 10.876 14.299 24.78 14.299 39.917 0 15.136-5.372 29.036-14.302 39.911l-11.348-11.348a46.792 46.792 0 0 0 9.678-28.563c0-23.865-17.783-43.565-40.818-46.607l.002-16.078c12.715 1.252 24.336 6.29 33.704 13.983l8.83-8.83C310.596 121.738 293.588 115 275 115c-41.654 0-75.421 33.767-75.421 75.421 0 39.562 30.465 71.984 69.21 75.146v-12.456c-31.833-3.13-56.788-30.046-56.788-62.69 0-32.64 24.955-59.56 56.786-62.69v16.076c-20.997 2.774-37.62 19.402-40.394 40.403h12.591c2.939-16.122 17.058-28.394 34.016-28.394 19.08 0 34.605 15.524 34.605 34.605 0 19.08-15.524 34.605-34.605 34.605-16.958 0-31.077-12.271-34.016-28.394h-12.59c3.041 23.035 22.741 40.816 46.606 40.816a46.81 46.81 0 0 0 28.566-9.678l11.347 11.345c-9.37 7.693-20.983 12.747-33.7 13.998v12.456c38.745-3.16 69.21-35.585 69.21-75.146-.002-18.593-6.742-35.6-17.893-48.749zm-39.118 48.747a18.405 18.405 0 0 1-6.732 14.233 18.44 18.44 0 0 1-6.335 3.386 18.465 18.465 0 0 1-5.345.793 18.405 18.405 0 0 1-14.232-6.732 18.44 18.44 0 0 1-3.387-6.335 18.465 18.465 0 0 1-.793-5.345 18.405 18.405 0 0 1 6.732-14.232 18.44 18.44 0 0 1 6.336-3.387 18.465 18.465 0 0 1 5.344-.792 18.405 18.405 0 0 1 14.233 6.731 18.44 18.44 0 0 1 3.386 6.336 18.465 18.465 0 0 1 .793 5.344z" data-paper-data="{&quot;isPathIcon&quot;:true}"/></g></g></svg>