<?xml version="1.0" encoding="UTF-8" standalone="no"?>
<!-- Created with Inkscape (http://www.inkscape.org/) -->
<svg xmlns:dc="http://purl.org/dc/elements/1.1/" xmlns:cc="http://creativecommons.org/ns#" xmlns:rdf="http://www.w3.org/1999/02/22-rdf-syntax-ns#" xmlns:svg="http://www.w3.org/2000/svg" xmlns="http://www.w3.org/2000/svg" xmlns:sodipodi="http://sodipodi.sourceforge.net/DTD/sodipodi-0.dtd" xmlns:inkscape="http://www.inkscape.org/namespaces/inkscape" width="200mm" height="200mm" viewBox="0 0 200 200" version="1.1" id="svg8" inkscape:version="0.92.4 (unknown)" sodipodi:docname="avatar.svg" inkscape:export-filename="/home/anonim/MEGAsync/DevTomek/images/avatar_500x500.png" inkscape:export-xdpi="63.5" inkscape:export-ydpi="63.5">
  <defs id="defs2"/>
  <sodipodi:namedview id="base" pagecolor="#ffffff" bordercolor="#666666" borderopacity="1.0" inkscape:pageopacity="0.0" inkscape:pageshadow="2" inkscape:zoom="0.49497475" inkscape:cx="860.74997" inkscape:cy="75.112243" inkscape:document-units="mm" inkscape:current-layer="layer1" showgrid="false" inkscape:window-width="1900" inkscape:window-height="1032" inkscape:window-x="0" inkscape:window-y="0" inkscape:window-maximized="1"/>
  <metadata id="metadata5">
    <rdf:RDF>
      <cc:Work rdf:about="">
        <dc:format>image/svg+xml</dc:format>
        <dc:type rdf:resource="http://purl.org/dc/dcmitype/StillImage"/>
        <dc:title/>
      </cc:Work>
    </rdf:RDF>
  </metadata>
  <g inkscape:groupmode="layer" id="layer2" inkscape:label="Background" style="display:inline" transform="translate(0,-97)">
    <circle style="display:inline;fill:#232323;fill-opacity:1;stroke-width:0.80229211" id="path4580" cx="100" cy="197" r="100" inkscape:export-xdpi="31.75" inkscape:export-ydpi="31.75"/>
  </g>
  <g inkscape:label="Terminal" inkscape:groupmode="layer" id="layer1" style="display:inline" transform="translate(0,-97)">
    <path id="path10" d="M 88.575219,199.60521 52.774021,235.4065 c -1.726669,1.72656 -4.526018,1.72656 -6.252499,0 l -4.175811,-4.17557 c -1.723735,-1.72392 -1.727031,-4.51758 -0.0077,-6.24521 L 70.711319,196.47891 42.338091,167.97229 c -1.71966,-1.72767 -1.716345,-4.52131 0.0077,-6.24515 l 4.175631,-4.17564 c 1.726664,-1.72657 4.526019,-1.72657 6.252496,0 l 35.801172,35.80129 c 1.726678,1.72638 1.726678,4.52586 0,6.25242 z m 70.374231,33.71703 v -5.89494 c 0,-2.44177 -1.97938,-4.4212 -4.42118,-4.4212 H 98.52641 c -2.441803,0 -4.421191,1.97943 -4.421191,4.4212 v 5.89494 c 0,2.44175 1.979388,4.42119 4.421191,4.42119 h 56.00186 c 2.4418,0 4.42118,-1.97944 4.42118,-4.42119 z" inkscape:connector-curvature="0" style="display:inline;fill:#007bff;fill-opacity:1;stroke-width:0.1842166" inkscape:export-xdpi="31.75" inkscape:export-ydpi="31.75"/>
  </g>
</svg>