<svg xmlns:mydata="http://www.w3.org/2000/svg" mydata:contrastcolor="11111f" mydata:template="Contrast" mydata:presentation="2.5" mydata:layouttype="undefined" mydata:specialfontid="undefined" mydata:id1="789" mydata:id2="75" mydata:companyname="educardoso" mydata:companytagline="where there is a shell there's a way" xmlns="http://www.w3.org/2000/svg" viewBox="0 0 550 470" class="svg-image-fade"><g style="mix-blend-mode:normal;fill:#fff"><g data-paper-data="{&quot;isGlobalGroup&quot;:true,&quot;bounds&quot;:{&quot;x&quot;:75.74526789437584,&quot;y&quot;:115.00000000000003,&quot;width&quot;:398.50946421124826,&quot;height&quot;:239.99999999999997}}" style="fill:#fff" fill="#62b5e5" fill-rule="none" stroke-miterlimit="10" font-family="none" font-weight="none" font-size="none" text-anchor="none"><g data-paper-data="{&quot;isSecondaryText&quot;:true}" fill-rule="nonzero" style="fill:#fff"><path d="m87.56629 346.81787-3.96187 8.07447h-.83974l-1.10889-2.22855-1.08736 2.22855h-.83974l-3.9834-8.07447h1.83021l2.62689 5.32915.59213-1.22732-2.01323-4.10183h1.72255l1.15196 2.35774 1.17349-2.35774h1.71179l-2.024 4.10183.60289 1.23808 2.62689-5.33991z" data-paper-data="{&quot;glyphName&quot;:&quot;W&quot;,&quot;glyphIndex&quot;:0,&quot;firstGlyphOfWord&quot;:true,&quot;word&quot;:1}" style="fill:#fff"/><path d="M100.65182 354.89234h-1.61489v-3.34821h-2.50847v3.34821h-1.61489v-8.07447h1.61489v3.35898h2.50847v-3.35898h1.61489z" data-paper-data="{&quot;glyphName&quot;:&quot;H&quot;,&quot;glyphIndex&quot;:1,&quot;word&quot;:1}" style="fill:#fff"/><path d="M112.70516 354.89234h-4.554v-8.07447h4.554v1.49647h-2.93911v1.86251h2.5946v1.35651h-2.5946v1.86251h2.93911z" data-paper-data="{&quot;glyphName&quot;:&quot;E&quot;,&quot;glyphIndex&quot;:2,&quot;word&quot;:1}" style="fill:#fff"/><path d="M125.62703 354.89234h-1.75485l-1.44264-3.12213h-1.0766v3.12213h-1.5826v-8.07447h3.036c.30862 0 .60289.0646.88281.19379.27991.12919.52215.30683.7267.53291.20455.22609.36784.48985.48985.7913.12201.30145.18302.62443.18302.96894 0 .43064-.0951.82718-.2853 1.18964-.1902.36245-.45755.65852-.80206.88819zm-2.09936-5.58753c0-.10766-.01974-.21532-.05921-.32298-.03948-.10766-.09151-.20455-.15611-.29068-.0646-.08613-.14175-.15611-.23147-.20994-.08972-.05383-.18123-.08074-.27453-.08074h-1.4534v1.77638h1.4534c.0933 0 .18482-.02691.27453-.08074.08972-.05383.16687-.12201.23147-.20455.0646-.08254.11663-.17584.15611-.27991s.05921-.20635.05921-.30683z" data-paper-data="{&quot;glyphName&quot;:&quot;R&quot;,&quot;glyphIndex&quot;:3,&quot;word&quot;:1}" style="fill:#fff"/><path d="M136.6341 354.89234h-4.554v-8.07447h4.554v1.49647h-2.93911v1.86251h2.5946v1.35651h-2.5946v1.86251h2.93911z" data-paper-data="{&quot;glyphName&quot;:&quot;E&quot;,&quot;glyphIndex&quot;:4,&quot;lastGlyphOfWord&quot;:true,&quot;word&quot;:1}" style="fill:#fff"/><path d="M156.16006 348.32511h-2.32545v6.56723h-1.62566v-6.56723h-2.32545v-1.50723h6.27655z" data-paper-data="{&quot;glyphName&quot;:&quot;T&quot;,&quot;glyphIndex&quot;:5,&quot;firstGlyphOfWord&quot;:true,&quot;word&quot;:2}" style="fill:#fff"/><path d="M168.84244 354.89234h-1.61489v-3.34821h-2.50847v3.34821h-1.61489v-8.07447h1.61489v3.35898h2.50847v-3.35898h1.61489z" data-paper-data="{&quot;glyphName&quot;:&quot;H&quot;,&quot;glyphIndex&quot;:6,&quot;word&quot;:2}" style="fill:#fff"/><path d="M180.89577 354.89234h-4.554v-8.07447h4.554v1.49647h-2.93911v1.86251h2.5946v1.35651h-2.5946v1.86251h2.93911z" data-paper-data="{&quot;glyphName&quot;:&quot;E&quot;,&quot;glyphIndex&quot;:7,&quot;word&quot;:2}" style="fill:#fff"/><path d="M193.81765 354.89234h-1.75485l-1.44264-3.12213h-1.0766v3.12213h-1.5826v-8.07447h3.036c.30862 0 .60289.0646.88281.19379.27991.12919.52215.30683.7267.53291.20455.22609.36784.48985.48985.7913.12201.30145.18302.62443.18302.96894 0 .43064-.0951.82718-.2853 1.18964-.1902.36245-.45755.65852-.80206.88819zm-2.09937-5.58753c0-.10766-.01974-.21532-.05921-.32298-.03948-.10766-.09151-.20455-.15611-.29068-.0646-.08613-.14175-.15611-.23147-.20994-.08972-.05383-.18123-.08074-.27453-.08074h-1.4534v1.77638h1.4534c.0933 0 .18482-.02691.27453-.08074.08972-.05383.16687-.12201.23147-.20455.0646-.08254.11663-.17584.15611-.27991s.05921-.20635.05921-.30683z" data-paper-data="{&quot;glyphName&quot;:&quot;R&quot;,&quot;glyphIndex&quot;:8,&quot;word&quot;:2}" style="fill:#fff"/><path d="M204.82472 354.89234h-4.554v-8.07447h4.554v1.49647h-2.93911v1.86251h2.5946v1.35651h-2.5946v1.86251h2.93911z" data-paper-data="{&quot;glyphName&quot;:&quot;E&quot;,&quot;glyphIndex&quot;:9,&quot;lastGlyphOfWord&quot;:true,&quot;word&quot;:2}" style="fill:#fff"/><path d="M219.62491 354.89234h-1.61489v-8.07447h1.61489z" data-paper-data="{&quot;glyphName&quot;:&quot;I&quot;,&quot;glyphIndex&quot;:10,&quot;firstGlyphOfWord&quot;:true,&quot;word&quot;:3}" style="fill:#fff"/><path d="M230.92946 352.51306c0 .36604-.06998.69979-.20994 1.00123-.13996.30145-.33016.56342-.5706.78591-.24044.2225-.51856.39475-.83436.51677-.3158.12201-.64955.18302-1.00123.18302-.32298 0-.62084-.05024-.89357-.15072-.27274-.10048-.51677-.24223-.73208-.42526-.21532-.18302-.40013-.40193-.55445-.65672-.15431-.25479-.27094-.53291-.34989-.83436l1.44264-.66749c.07177.27991.19738.52574.37681.73747.17943.21173.42705.3176.74285.3176.10766 0 .2225-.01974.34451-.05921.12201-.03948.23147-.0933.32836-.16149.09689-.06818.17764-.15252.24223-.253.0646-.10048.09689-.21173.09689-.33374 0-.17226-.07716-.3176-.23147-.43602-.15431-.11843-.3463-.23147-.57598-.33913-.22967-.10766-.48088-.2225-.75362-.34451-.27274-.12201-.52394-.27633-.75362-.46294-.22967-.18661-.42167-.41808-.57598-.6944-.15431-.27633-.23147-.62263-.23147-1.03891 0-.32298.05921-.63519.17764-.93664s.28171-.56701.48985-.79668c.20814-.22967.45576-.41269.74285-.54906s.5993-.20455.93664-.20455c.55983 0 1.04071.15611 1.44264.46832.40193.31221.6962.7267.88281 1.24347l-1.47494.68902c-.05742-.19379-.15611-.36245-.29606-.506-.13996-.14355-.31401-.21532-.52215-.21532-.22967 0-.42167.07895-.57598.23685-.15431.1579-.23147.3481-.23147.5706 0 .17226.07716.31401.23147.42526.15431.11125.3463.21891.57598.32298.22967.10407.48088.21711.75362.33913.27274.12201.52394.27812.75362.46832.22967.1902.42167.42526.57598.70517.15431.27991.23147.6316.23147 1.05506z" data-paper-data="{&quot;glyphName&quot;:&quot;S&quot;,&quot;glyphIndex&quot;:11,&quot;lastGlyphOfWord&quot;:true,&quot;word&quot;:3}" style="fill:#fff"/><path d="M252.09219 354.89234h-1.67949l-.64596-1.5503H246.903l-.63519 1.5503h-1.70102l3.38051-8.07447h.77515zm-2.86374-2.86374-.89357-2.15319-.92587 2.15319z" data-paper-data="{&quot;glyphName&quot;:&quot;A&quot;,&quot;glyphIndex&quot;:12,&quot;firstGlyphOfWord&quot;:true,&quot;lastGlyphOfWord&quot;:true,&quot;word&quot;:4}" style="fill:#fff"/><path d="M270.73792 352.51306c0 .36604-.06998.69979-.20994 1.00123-.13996.30145-.33016.56342-.5706.78591-.24044.2225-.51856.39475-.83436.51677-.3158.12201-.64955.18302-1.00123.18302-.32298 0-.62084-.05024-.89357-.15072-.27274-.10048-.51677-.24223-.73208-.42526-.21532-.18302-.40013-.40193-.55445-.65672-.15431-.25479-.27094-.53291-.34989-.83436l1.44264-.66749c.07177.27991.19738.52574.37681.73747.17943.21173.42705.3176.74285.3176.10766 0 .2225-.01974.34451-.05921.12201-.03948.23147-.0933.32836-.16149.09689-.06818.17764-.15252.24223-.253.0646-.10048.09689-.21173.09689-.33374 0-.17226-.07716-.3176-.23147-.43602-.15431-.11843-.3463-.23147-.57598-.33913-.22967-.10766-.48088-.2225-.75362-.34451-.27274-.12201-.52394-.27633-.75362-.46294-.22967-.18661-.42167-.41808-.57598-.6944-.15431-.27633-.23147-.62263-.23147-1.03891 0-.32298.05921-.63519.17764-.93664s.28171-.56701.48985-.79668c.20814-.22967.45576-.41269.74285-.54906s.5993-.20455.93664-.20455c.55983 0 1.04071.15611 1.44264.46832.40193.31221.6962.7267.88281 1.24347l-1.47494.68902c-.05742-.19379-.15611-.36245-.29606-.506-.13996-.14355-.31401-.21532-.52215-.21532-.22967 0-.42167.07895-.57598.23685-.15431.1579-.23147.3481-.23147.5706 0 .17226.07716.31401.23147.42526.15431.11125.3463.21891.57598.32298.22967.10407.48088.21711.75362.33913.27274.12201.52394.27812.75362.46832.22967.1902.42167.42526.57598.70517.15431.27991.23147.6316.23147 1.05506z" data-paper-data="{&quot;glyphName&quot;:&quot;S&quot;,&quot;glyphIndex&quot;:13,&quot;firstGlyphOfWord&quot;:true,&quot;word&quot;:5}" style="fill:#fff"/><path d="M283.64119 354.89234h-1.61489v-3.34821h-2.50847v3.34821h-1.61489v-8.07447h1.61489v3.35898h2.50847v-3.35898h1.61489z" data-paper-data="{&quot;glyphName&quot;:&quot;H&quot;,&quot;glyphIndex&quot;:14,&quot;word&quot;:5}" style="fill:#fff"/><path d="M295.69453 354.89234h-4.554v-8.07447h4.554v1.49647h-2.93911v1.86251h2.5946v1.35651h-2.5946v1.86251h2.93911z" data-paper-data="{&quot;glyphName&quot;:&quot;E&quot;,&quot;glyphIndex&quot;:15,&quot;word&quot;:5}" style="fill:#fff"/><path d="M306.81764 354.89234h-4.37098v-8.07447h1.61489v6.578h2.75608z" data-paper-data="{&quot;glyphName&quot;:&quot;L&quot;,&quot;glyphIndex&quot;:16,&quot;word&quot;:5}" style="fill:#fff"/><path d="M317.59612 354.89234h-4.37098v-8.07447h1.61489v6.578h2.75608z" data-paper-data="{&quot;glyphName&quot;:&quot;L&quot;,&quot;glyphIndex&quot;:17,&quot;lastGlyphOfWord&quot;:true,&quot;word&quot;:5}" style="fill:#fff"/><path d="M336.77745 348.32511H334.452v6.56723h-1.62566v-6.56723h-2.32545v-1.50723h6.27655z" data-paper-data="{&quot;glyphName&quot;:&quot;T&quot;,&quot;glyphIndex&quot;:18,&quot;firstGlyphOfWord&quot;:true,&quot;word&quot;:6}" style="fill:#fff"/><path d="M349.45982 354.89234h-1.61489v-3.34821h-2.50847v3.34821h-1.61489v-8.07447h1.61489v3.35898h2.50847v-3.35898h1.61489z" data-paper-data="{&quot;glyphName&quot;:&quot;H&quot;,&quot;glyphIndex&quot;:19,&quot;word&quot;:6}" style="fill:#fff"/><path d="M361.51316 354.89234h-4.554v-8.07447h4.554v1.49647h-2.93911v1.86251h2.5946v1.35651h-2.5946v1.86251h2.93911z" data-paper-data="{&quot;glyphName&quot;:&quot;E&quot;,&quot;glyphIndex&quot;:20,&quot;word&quot;:6}" style="fill:#fff"/><path d="M374.43504 354.89234h-1.75485l-1.44264-3.12213h-1.0766v3.12213h-1.5826v-8.07447h3.036c.30862 0 .60289.0646.88281.19379.27991.12919.52215.30683.7267.53291.20455.22609.36784.48985.48985.7913.12201.30145.18302.62443.18302.96894 0 .43064-.0951.82718-.2853 1.18964-.1902.36245-.45755.65852-.80206.88819zm-2.09937-5.58753c0-.10766-.01974-.21532-.05921-.32298-.03948-.10766-.09151-.20455-.15611-.29068-.0646-.08613-.14175-.15611-.23147-.20994-.08972-.05383-.18123-.08074-.27453-.08074h-1.4534v1.77638h1.4534c.0933 0 .18482-.02691.27453-.08074.08972-.05383.16687-.12201.23147-.20455.0646-.08254.11663-.17584.15611-.27991s.05921-.20635.05921-.30683z" data-paper-data="{&quot;glyphName&quot;:&quot;R&quot;,&quot;glyphIndex&quot;:21,&quot;word&quot;:6}" style="fill:#fff"/><path d="M385.44211 354.89234h-4.554v-8.07447h4.554v1.49647H382.503v1.86251h2.5946v1.35651h-2.5946v1.86251h2.93911z" data-paper-data="{&quot;glyphName&quot;:&quot;E&quot;,&quot;glyphIndex&quot;:22,&quot;word&quot;:6}" style="fill:#fff"/><path d="m392.28701 346.17192-.21532 3.08983h-.78591l-.21532-3.08983z" data-paper-data="{&quot;glyphName&quot;:&quot;'&quot;,&quot;glyphIndex&quot;:23,&quot;word&quot;:6}" style="fill:#fff"/><path d="M403.04853 352.51306c0 .36604-.06998.69979-.20994 1.00123-.13996.30145-.33016.56342-.5706.78591-.24044.2225-.51856.39475-.83436.51677-.3158.12201-.64955.18302-1.00123.18302-.32298 0-.62084-.05024-.89357-.15072-.27274-.10048-.51677-.24223-.73208-.42526-.21532-.18302-.40013-.40193-.55445-.65672-.15431-.25479-.27094-.53291-.34989-.83436l1.44264-.66749c.07177.27991.19738.52574.37681.73747.17943.21173.42705.3176.74285.3176.10766 0 .2225-.01974.34451-.05921.12201-.03948.23147-.0933.32836-.16149.09689-.06818.17764-.15252.24223-.253.0646-.10048.09689-.21173.09689-.33374 0-.17226-.07716-.3176-.23147-.43602-.15431-.11843-.3463-.23147-.57598-.33913-.22967-.10766-.48088-.2225-.75362-.34451-.27274-.12201-.52394-.27633-.75362-.46294-.22967-.18661-.42167-.41808-.57598-.6944-.15431-.27633-.23147-.62263-.23147-1.03891 0-.32298.05921-.63519.17764-.93664s.28171-.56701.48985-.79668c.20814-.22967.45576-.41269.74285-.54906s.5993-.20455.93664-.20455c.55983 0 1.04071.15611 1.44264.46832.40193.31221.6962.7267.88281 1.24347l-1.47494.68902c-.05742-.19379-.15611-.36245-.29606-.506-.13996-.14355-.31401-.21532-.52215-.21532-.22967 0-.42167.07895-.57598.23685-.15431.1579-.23147.3481-.23147.5706 0 .17226.07716.31401.23147.42526.15431.11125.3463.21891.57598.32298.22967.10407.48088.21711.75362.33913.27274.12201.52394.27812.75362.46832.22967.1902.42167.42526.57598.70517.15431.27991.23147.6316.23147 1.05506z" data-paper-data="{&quot;glyphName&quot;:&quot;S&quot;,&quot;glyphIndex&quot;:24,&quot;lastGlyphOfWord&quot;:true,&quot;word&quot;:6}" style="fill:#fff"/><path d="M424.21126 354.89234h-1.67949l-.64596-1.5503h-2.86374l-.63519 1.5503h-1.70102l3.38051-8.07447h.77515zm-2.86374-2.86374-.89357-2.15319-.92587 2.15319z" data-paper-data="{&quot;glyphName&quot;:&quot;A&quot;,&quot;glyphIndex&quot;:25,&quot;firstGlyphOfWord&quot;:true,&quot;lastGlyphOfWord&quot;:true,&quot;word&quot;:7}" style="fill:#fff"/><path d="m449.85188 346.81787-3.96187 8.07447h-.83974l-1.10889-2.22855-1.08736 2.22855h-.83974l-3.9834-8.07447h1.83021l2.62689 5.32915.59213-1.22732-2.01323-4.10183h1.72255l1.15196 2.35774 1.17349-2.35774h1.71179l-2.024 4.10183.60289 1.23808 2.62689-5.33991z" data-paper-data="{&quot;glyphName&quot;:&quot;W&quot;,&quot;glyphIndex&quot;:26,&quot;firstGlyphOfWord&quot;:true,&quot;word&quot;:8}" style="fill:#fff"/><path d="M462.65265 354.89234h-1.67949l-.64596-1.5503h-2.86374l-.63519 1.5503h-1.70102l3.38051-8.07447h.77515zm-2.86375-2.86374-.89357-2.15319-.92587 2.15319z" data-paper-data="{&quot;glyphName&quot;:&quot;A&quot;,&quot;glyphIndex&quot;:27,&quot;word&quot;:8}" style="fill:#fff"/><path d="m474.25473 346.81787-2.71302 4.27408v3.80038h-1.61489v-3.80038l-2.70225-4.27408h1.93787l1.57183 2.4977 1.5826-2.4977z" data-paper-data="{&quot;glyphName&quot;:&quot;Y&quot;,&quot;glyphIndex&quot;:28,&quot;lastGlyphOfWord&quot;:true,&quot;word&quot;:8}" style="fill:#fff"/></g><g data-paper-data="{&quot;isPrimaryText&quot;:true}" fill-rule="nonzero" style="fill:#fff"><path d="M98.76757 317.47004v-6.88856h-.72511l-.2417.36256c-.66469 1.20852-3.20258 2.05448-6.2843 2.05448H84.8696V296.9252h8.64092c3.62556 0 6.88856 1.51065 8.27836 3.74641l.42298.66469h.66469v-6.10303H75.74528v.90639c1.57108 0 2.41704 1.26895 2.41704 3.92769v30.213c0 2.65874-.84596 3.92769-2.41704 3.92769v.90639h27.1917l.18128-.84596c.2417-1.57108.60426-3.68599.90639-5.25706h-.66469l-.54383.66469c-1.81278 2.23576-5.31749 3.74641-8.94305 3.74641h-9.00347v-18.73206h6.64686c3.08173 0 5.55919.96682 6.2843 2.35661l.2417.42298z" data-paper-data="{&quot;glyphName&quot;:&quot;E&quot;,&quot;glyphIndex&quot;:0,&quot;firstGlyphOfWord&quot;:true,&quot;word&quot;:1}" style="fill:#fff"/><path d="M109.82553 296.13966c1.57108 0 2.41704 1.26895 2.41704 3.92769v30.213c0 2.65874-.84596 3.92769-2.41704 3.92769v.90639h17.76524c11.78307 0 19.63845-7.97623 19.63845-19.94058s-8.70134-19.94058-21.81379-19.94058h-15.58991zm9.12433 37.28284v-36.4973h6.46558c9.0639 0 15.1065 7.31155 15.1065 18.24865 0 10.93711-5.19664 18.24865-12.93116 18.24865z" data-paper-data="{&quot;glyphName&quot;:&quot;D&quot;,&quot;glyphIndex&quot;:1,&quot;word&quot;:1}" style="fill:#fff"/><path d="M186.20399 295.23327h-7.6741v.90639h.42298c1.3898 0 2.35661 1.57108 2.47747 3.98812l-.06043 22.96188c0 5.92175-3.14215 9.90986-11.17881 9.90986-6.58643 0-9.12433-3.86726-9.12433-9.72859v-23.26401c0-2.65874.84596-3.92769 2.41704-3.92769v-.90639h-11.54137v.90639c1.57108 0 2.41704 1.26895 2.41704 3.92769v21.93464c0 8.03666 4.16939 13.41457 14.80437 13.41457 10.27242 0 14.26054-4.6528 14.26054-11.60179v-23.14316c0-2.71917.96682-4.53195 2.35661-4.53195h.42298z" data-paper-data="{&quot;glyphName&quot;:&quot;U&quot;,&quot;glyphIndex&quot;:2,&quot;word&quot;:1}" style="fill:#fff"/><path d="M230.43583 304.05547v-5.55919c-3.68599-2.11491-9.78901-3.56513-15.22735-3.56513-13.05202 0-21.75336 8.09708-21.75336 20.24271 0 12.14563 8.70134 20.24271 21.75336 20.24271 5.43834 0 11.54137-1.45022 15.22735-3.56513l-.48341-.78554.42298.78554v-5.55919h-.78554c-.2417.42298-.54383.90639-.78554 1.32937-2.23576 3.80684-7.55325 6.10303-13.7167 6.10303-8.58049 0-14.32096-7.4324-14.32096-18.55078 0-11.11838 5.74047-18.55078 14.32096-18.55078.30213 0 4.35067.12085 4.35067.30213 3.86726.54383 7.61368 2.84002 9.3056 5.8009.2417.42298.54383.90639.78554 1.32937z" data-paper-data="{&quot;glyphName&quot;:&quot;C&quot;,&quot;glyphIndex&quot;:3,&quot;word&quot;:1}" style="fill:#fff"/><path d="M259.56116 335.11443h12.44776v-.90639c-1.51065 0-2.7796-1.26895-3.86726-3.68599l-15.3482-36.19517h-1.69193l-13.11244 36.31603c-.96682 2.41704-2.17534 3.62556-3.80684 3.62556v.90639h7.91581v-.90639h-.48341c-1.6315 0-2.11491-1.75235-1.26895-4.4111l3.0213-8.70134h13.53542c1.20852 3.08173 2.53789 6.22388 3.74641 9.24518.96682 2.35661.66469 3.92769-.78554 3.92769h-.42298zm-3.32343-15.65033h-12.26648l5.61962-16.19417z" data-paper-data="{&quot;glyphName&quot;:&quot;A&quot;,&quot;glyphIndex&quot;:4,&quot;word&quot;:1}" style="fill:#fff"/><path d="M274.84894 296.13966c1.57108 0 2.41704 1.26895 2.41704 3.92769v30.213c0 2.65874-.84596 3.92769-2.41704 3.92769v.90639h11.54137v-.90639c-1.57108 0-2.41704-1.26895-2.41704-3.92769v-14.07926h4.35067c1.6315 2.29619 4.83408 6.76771 8.94305 12.50818 4.4111 6.16345 4.89451 6.40516 12.26648 6.40516h2.35661v-1.32937c-2.65874 0-2.7796-.06043-5.49877-3.80684-5.13621-7.25112-9.00347-12.44776-10.57455-14.50224 5.86132-1.45022 9.48688-5.07578 9.48688-9.97029 0-6.16345-5.68004-10.27242-14.20011-10.27242h-16.31502zm14.80436 18.3695h-5.74047v-17.58397h7.19069c4.29025 0 7.13027 3.44428 7.13027 8.58049 0 5.37791-3.44428 9.00347-8.58049 9.00347z" data-paper-data="{&quot;glyphName&quot;:&quot;R&quot;,&quot;glyphIndex&quot;:5,&quot;word&quot;:1}" style="fill:#fff"/><path d="M314.18626 296.13966c1.57108 0 2.41704 1.26895 2.41704 3.92769v30.213c0 2.65874-.84596 3.92769-2.41704 3.92769v.90639h17.76524c11.78307 0 19.63845-7.97623 19.63845-19.94058s-8.70134-19.94058-21.81379-19.94058h-15.58991zm9.12433 37.28284v-36.4973h6.46558c9.0639 0 15.1065 7.31155 15.1065 18.24865 0 10.93711-5.19664 18.24865-12.93116 18.24865z" data-paper-data="{&quot;glyphName&quot;:&quot;D&quot;,&quot;glyphIndex&quot;:6,&quot;word&quot;:1}" style="fill:#fff"/><path d="M364.82325 315.17385c0-10.03072 4.29025-18.55078 12.62903-18.55078 8.27836 0 12.56861 8.52007 12.56861 18.55078 0 10.03072-4.29025 18.55078-12.56861 18.55078-8.33879 0-12.62903-8.52007-12.62903-18.55078zm-7.4324 0c0 10.93711 6.82814 20.24271 20.06143 20.24271 13.17287 0 20.00101-9.3056 20.00101-20.24271 0-10.93711-6.82814-20.24271-20.00101-20.24271-13.23329 0-20.06143 9.3056-20.06143 20.24271z" data-paper-data="{&quot;glyphName&quot;:&quot;O&quot;,&quot;glyphIndex&quot;:7,&quot;word&quot;:1}" style="fill:#fff"/><path d="M426.15564 303.81376v-6.0426c-2.96087-1.69193-7.00942-2.84002-10.21199-2.84002-7.73453 0-12.93116 4.83408-12.93116 12.0852 0 4.53195 3.98812 8.8222 10.03072 10.75583 6.52601 2.05448 10.87668 5.68004 10.87668 9.00347 0 4.16939-3.32343 6.94899-8.27836 6.94899-.84596 0-1.75235-.06043-2.65874-.18128-3.50471-.60426-6.82814-2.7796-8.45964-5.61962-.2417-.42298-.54383-.90639-.78554-1.32937h-.78554v6.0426c2.96087 1.69193 8.03666 2.84002 12.74989 2.84002 7.85538 0 13.05202-4.59238 13.05202-11.42051 0-4.83408-4.16939-9.42646-10.4537-11.42051-6.34473-1.99406-10.57455-5.31749-10.57455-8.21794 0-4.6528 3.20258-7.79495 7.97623-7.79495 0 0 2.53789.2417 2.47747.36256 2.29619.54383 4.71323 2.47747 6.0426 4.83408.36256.60426.84596 1.45022 1.20852 2.05448z" data-paper-data="{&quot;glyphName&quot;:&quot;S&quot;,&quot;glyphIndex&quot;:8,&quot;word&quot;:1}" style="fill:#fff"/><path d="M441.62469 315.17385c0-10.03072 4.29025-18.55078 12.62903-18.55078 8.27836 0 12.56861 8.52007 12.56861 18.55078 0 10.03072-4.29025 18.55078-12.56861 18.55078-8.33879 0-12.62903-8.52007-12.62903-18.55078zm-7.4324 0c0 10.93711 6.82814 20.24271 20.06143 20.24271 13.17287 0 20.00101-9.3056 20.00101-20.24271 0-10.93711-6.82814-20.24271-20.00101-20.24271-13.23329 0-20.06143 9.3056-20.06143 20.24271z" data-paper-data="{&quot;glyphName&quot;:&quot;O&quot;,&quot;glyphIndex&quot;:9,&quot;lastGlyphOfWord&quot;:true,&quot;word&quot;:1}" style="fill:#fff"/></g><g data-paper-data="{&quot;isIcon&quot;:&quot;true&quot;,&quot;iconType&quot;:&quot;icon&quot;,&quot;rawIconId&quot;:&quot;37726&quot;,&quot;selectedEffects&quot;:{&quot;container&quot;:&quot;&quot;,&quot;transformation&quot;:&quot;&quot;,&quot;pattern&quot;:&quot;&quot;},&quot;isDetailed&quot;:false,&quot;fillRule&quot;:&quot;evenodd&quot;,&quot;bounds&quot;:{&quot;x&quot;:199.57794996799467,&quot;y&quot;:115.00000000000003,&quot;width&quot;:150.84410006401058,&quot;height&quot;:150.56901323468307},&quot;iconStyle&quot;:&quot;standalone&quot;,&quot;suitableAsStandaloneIcon&quot;:true}" fill-rule="evenodd" style="fill:#fff"><path d="m332.52859 141.67425-8.83049 8.83049c8.93164 10.87484 14.29985 24.77896 14.29985 39.91642 0 15.1357-5.37176 29.03626-14.30163 39.9111l-11.34866-11.34866c6.06741-7.91833 9.67875-17.81537 9.67875-28.56243 0-23.86503-17.78342-43.56503-40.81793-46.60673l.00177-16.07802c12.71512 1.2511 24.3353 6.28924 33.7035 13.9822l8.83049-8.83049C310.59611 121.73822 293.5882 115 274.9991 115c-41.65378 0-75.42116 33.76739-75.42116 75.42116 0 39.5615 30.46483 71.98373 69.21001 75.14609v-12.45603c-31.83305-3.13042-56.78769-30.04602-56.78769-62.69007 0-32.6405 24.95464-59.55964 56.78592-62.69007v16.07624c-20.99725 2.77372-37.62007 19.40187-40.3938 40.40267h12.5909c2.93876-16.12238 17.0576-28.39385 34.01583-28.39385 19.08067 0 34.605 15.52434 34.605 34.605 0 19.08067-15.52434 34.605-34.605 34.605-16.95822 0-31.07707-12.27147-34.01583-28.39385h-12.5909c3.04169 23.03451 22.7417 40.81616 46.60673 40.81616 10.74885 0 20.64765-3.61312 28.56599-9.67875l11.34689 11.34512c-9.36997 7.69296-20.98305 12.74706-33.69995 13.99817v12.45603c38.74518-3.16059 69.21001-35.58459 69.21001-75.14609-.00177-18.59264-6.74177-35.60056-17.89345-48.74869zm-39.11785 48.74691c0 .30133-.00739.60248-.02218.90346-.01479.30097-.03697.60136-.06654.90115-.02946.29991-.06631.59887-.11056.89689-.04425.29814-.09577.59497-.15457.8905-.05868.29553-.12463.58941-.19787.88163-.07323.29234-.15357.58267-.241.87098-.08755.28832-.18208.57432-.28359.85802-.10151.2837-.20988.56475-.32511.84312-.11535.27838-.23744.5538-.36628.82626-.12884.27234-.2643.54138-.40639.8071-.14197.26584-.29044.52795-.44543.78634-.15486.2585-.316.51298-.4834.76344-.16741.25057-.34085.4969-.52031.73895-.17947.24194-.3648.47938-.55599.71233-.19119.23295-.38793.46105-.59024.68429-.20243.22325-.41018.44141-.62324.65447-.21307.21307-.43123.42082-.65447.62324-.22325.2023-.45134.39905-.68429.59024-.23295.19119-.47039.37651-.71233.55599-.24206.17947-.48837.35291-.73895.52031-.25045.16741-.50494.32854-.76344.4834-.25838.15498-.5205.30346-.78634.44543-.26572.14209-.53475.27755-.8071.40639-.27246.12884-.54788.25093-.82626.36628-.27838.11523-.55942.2236-.84312.32511-.2837.10151-.56971.19604-.85802.28359-.28832.08743-.57865.16776-.87098.241-.29222.07323-.5861.13919-.88163.19787-.29553.0588-.59236.11032-.8905.15457-.29802.04425-.59698.0811-.89689.11056-.2998.02958-.60018.05176-.90115.06654-.30097.01479-.60212.02218-.90346.02218-.30133 0-.60248-.00739-.90346-.02218-.30097-.01479-.60136-.03697-.90115-.06654-.29991-.02946-.59887-.06631-.89689-.11056-.29814-.04425-.59497-.09577-.8905-.15457-.29553-.05868-.58941-.12463-.88163-.19787-.29234-.07323-.58267-.15357-.87098-.241-.28832-.08755-.57432-.18208-.85802-.28359-.2837-.10151-.56475-.20988-.84312-.32511-.27838-.11535-.5538-.23744-.82626-.36628-.27234-.12884-.54138-.2643-.8071-.40639-.26584-.14197-.52795-.29044-.78634-.44543-.2585-.15486-.51298-.316-.76344-.4834-.25057-.16741-.4969-.34085-.73895-.52031-.24194-.17947-.47938-.3648-.71233-.55599-.23295-.19119-.46105-.38793-.68429-.59024-.22325-.20243-.44141-.41018-.65447-.62324-.21307-.21307-.42082-.43123-.62324-.65447-.2023-.22325-.39905-.45134-.59024-.68429-.19119-.23295-.37651-.47039-.55599-.71233-.17947-.24206-.35291-.48837-.52031-.73895-.16741-.25045-.32854-.50494-.4834-.76344-.15498-.25838-.30346-.5205-.44543-.78634-.14209-.26572-.27755-.53475-.40639-.8071-.12884-.27246-.25093-.54788-.36628-.82626-.11523-.27838-.2236-.55942-.32511-.84312-.10151-.2837-.19604-.56971-.28359-.85802-.08743-.28832-.16776-.57865-.241-.87098-.07323-.29222-.13919-.5861-.19787-.88163-.0588-.29553-.11032-.59236-.15457-.8905-.04425-.29802-.0811-.59698-.11056-.89689-.02958-.2998-.05176-.60018-.06654-.90115-.01479-.30097-.02218-.60212-.02218-.90346 0-.30133.00739-.60248.02218-.90346.01479-.30097.03697-.60136.06654-.90115.02946-.29991.06631-.59887.11056-.89689.04425-.29814.09577-.59497.15457-.8905.05868-.29553.12463-.58941.19787-.88163.07323-.29234.15357-.58267.241-.87098.08755-.28832.18208-.57432.28359-.85802.10151-.2837.20988-.56475.32511-.84312.11535-.27838.23744-.5538.36628-.82626.12884-.27234.2643-.54138.40639-.8071.14197-.26584.29044-.52795.44543-.78634.15486-.2585.316-.51298.4834-.76344.16741-.25057.34085-.4969.52031-.73895.17947-.24194.3648-.47938.55599-.71233.19119-.23295.38793-.46105.59024-.68429.20243-.22325.41018-.44141.62324-.65447.21307-.21307.43123-.42082.65447-.62324.22325-.2023.45134-.39905.68429-.59024.23295-.19119.47039-.37651.71233-.55599.24206-.17947.48837-.35291.73895-.52031.25045-.16741.50494-.32854.76344-.4834.25838-.15498.5205-.30346.78634-.44543.26572-.14209.53475-.27755.8071-.40639.27246-.12884.54788-.25093.82626-.36628.27838-.11523.55942-.2236.84312-.32511.2837-.10151.56971-.19604.85802-.28359.28832-.08743.57865-.16776.87098-.241.29222-.07323.5861-.13919.88163-.19787.29553-.0588.59236-.11032.8905-.15457.29802-.04425.59698-.0811.89689-.11056.2998-.02958.60018-.05176.90115-.06654.30097-.01479.60212-.02218.90346-.02218.30133 0 .60248.00739.90346.02218.30097.01479.60136.03697.90115.06654.29991.02946.59887.06631.89689.11056.29814.04425.59497.09577.8905.15457.29553.05868.58941.12463.88163.19787.29234.07323.58267.15357.87098.241.28832.08755.57432.18208.85802.28359.2837.10151.56475.20988.84312.32511.27838.11535.5538.23744.82626.36628.27234.12884.54138.2643.8071.40639.26584.14197.52795.29044.78634.44543.2585.15486.51298.316.76344.4834.25057.16741.4969.34085.73895.52031.24194.17947.47938.3648.71233.55599.23295.19119.46105.38793.68429.59024.22325.20243.44141.41018.65447.62324.21307.21307.42082.43123.62324.65447.2023.22325.39905.45134.59024.68429.19119.23295.37651.47039.55599.71233.17947.24206.35291.48837.52031.73895.16741.25045.32854.50494.4834.76344.15498.25838.30346.5205.44543.78634.14209.26572.27755.53475.40639.8071.12884.27246.25093.54788.36628.82626.11523.27838.2236.55942.32511.84312.10151.2837.19604.56971.28359.85802.08743.28832.16776.57865.241.87098.07323.29222.13919.5861.19787.88163.0588.29553.11032.59236.15457.8905.04425.29802.0811.59698.11056.89689.02958.2998.05176.60018.06654.90115.01479.30097.02218.60212.02218.90346z" data-paper-data="{&quot;isPathIcon&quot;:true}" style="fill:#fff"/></g></g></g></svg>