<svg xmlns:mydata="http://www.w3.org/2000/svg" mydata:contrastcolor="11111f" mydata:template="Contrast" mydata:presentation="2.5" mydata:layouttype="undefined" mydata:specialfontid="undefined" mydata:id1="789" mydata:id2="075" mydata:companyname="educardoso" mydata:companytagline="where there is a shell there's a way" version="1.1" xmlns="http://www.w3.org/2000/svg" xmlns:xlink="http://www.w3.org/1999/xlink" viewBox="0 0 550 470" class="svg-image-fade"><g fill="#62b5e5" fill-rule="none" stroke="none" stroke-width="1" stroke-linecap="butt" stroke-linejoin="miter" stroke-miterlimit="10" stroke-dasharray="" stroke-dashoffset="0" font-family="none" font-weight="none" font-size="none" text-anchor="none" style="mix-blend-mode: normal; fill: rgb(255, 255, 255);"><g data-paper-data="{&quot;isGlobalGroup&quot;:true,&quot;bounds&quot;:{&quot;x&quot;:75.74526789437584,&quot;y&quot;:115.00000000000003,&quot;width&quot;:398.50946421124826,&quot;height&quot;:239.99999999999997}}" style="fill: rgb(255, 255, 255);"><g data-paper-data="{&quot;isSecondaryText&quot;:true}" fill-rule="nonzero" style="fill: rgb(255, 255, 255);"><path d="M87.56629,346.81787l-3.96187,8.07447h-0.83974l-1.10889,-2.22855l-1.08736,2.22855h-0.83974l-3.9834,-8.07447h1.83021l2.62689,5.32915l0.59213,-1.22732l-2.01323,-4.10183h1.72255l1.15196,2.35774l1.17349,-2.35774h1.71179l-2.024,4.10183l0.60289,1.23808l2.62689,-5.33991z" data-paper-data="{&quot;glyphName&quot;:&quot;W&quot;,&quot;glyphIndex&quot;:0,&quot;firstGlyphOfWord&quot;:true,&quot;word&quot;:1}" style="fill: rgb(255, 255, 255);"></path><path d="M100.65182,354.89234h-1.61489v-3.34821h-2.50847v3.34821h-1.61489v-8.07447h1.61489v3.35898h2.50847v-3.35898h1.61489z" data-paper-data="{&quot;glyphName&quot;:&quot;H&quot;,&quot;glyphIndex&quot;:1,&quot;word&quot;:1}" style="fill: rgb(255, 255, 255);"></path><path d="M112.70516,354.89234h-4.554v-8.07447h4.554v1.49647h-2.93911v1.86251h2.5946v1.35651h-2.5946v1.86251h2.93911z" data-paper-data="{&quot;glyphName&quot;:&quot;E&quot;,&quot;glyphIndex&quot;:2,&quot;word&quot;:1}" style="fill: rgb(255, 255, 255);"></path><path d="M125.62703,354.89234h-1.75485l-1.44264,-3.12213h-1.0766v3.12213h-1.5826v-8.07447h3.036c0.30862,0 0.60289,0.0646 0.88281,0.19379c0.27991,0.12919 0.52215,0.30683 0.7267,0.53291c0.20455,0.22609 0.36784,0.48985 0.48985,0.7913c0.12201,0.30145 0.18302,0.62443 0.18302,0.96894c0,0.43064 -0.0951,0.82718 -0.2853,1.18964c-0.1902,0.36245 -0.45755,0.65852 -0.80206,0.88819zM123.52767,349.30481c0,-0.10766 -0.01974,-0.21532 -0.05921,-0.32298c-0.03948,-0.10766 -0.09151,-0.20455 -0.15611,-0.29068c-0.0646,-0.08613 -0.14175,-0.15611 -0.23147,-0.20994c-0.08972,-0.05383 -0.18123,-0.08074 -0.27453,-0.08074h-1.4534v1.77638h1.4534c0.0933,0 0.18482,-0.02691 0.27453,-0.08074c0.08972,-0.05383 0.16687,-0.12201 0.23147,-0.20455c0.0646,-0.08254 0.11663,-0.17584 0.15611,-0.27991c0.03948,-0.10407 0.05921,-0.20635 0.05921,-0.30683z" data-paper-data="{&quot;glyphName&quot;:&quot;R&quot;,&quot;glyphIndex&quot;:3,&quot;word&quot;:1}" style="fill: rgb(255, 255, 255);"></path><path d="M136.6341,354.89234h-4.554v-8.07447h4.554v1.49647h-2.93911v1.86251h2.5946v1.35651h-2.5946v1.86251h2.93911z" data-paper-data="{&quot;glyphName&quot;:&quot;E&quot;,&quot;glyphIndex&quot;:4,&quot;lastGlyphOfWord&quot;:true,&quot;word&quot;:1}" style="fill: rgb(255, 255, 255);"></path><path d="M156.16006,348.32511h-2.32545v6.56723h-1.62566v-6.56723h-2.32545v-1.50723h6.27655z" data-paper-data="{&quot;glyphName&quot;:&quot;T&quot;,&quot;glyphIndex&quot;:5,&quot;firstGlyphOfWord&quot;:true,&quot;word&quot;:2}" style="fill: rgb(255, 255, 255);"></path><path d="M168.84244,354.89234h-1.61489v-3.34821h-2.50847v3.34821h-1.61489v-8.07447h1.61489v3.35898h2.50847v-3.35898h1.61489z" data-paper-data="{&quot;glyphName&quot;:&quot;H&quot;,&quot;glyphIndex&quot;:6,&quot;word&quot;:2}" style="fill: rgb(255, 255, 255);"></path><path d="M180.89577,354.89234h-4.554v-8.07447h4.554v1.49647h-2.93911v1.86251h2.5946v1.35651h-2.5946v1.86251h2.93911z" data-paper-data="{&quot;glyphName&quot;:&quot;E&quot;,&quot;glyphIndex&quot;:7,&quot;word&quot;:2}" style="fill: rgb(255, 255, 255);"></path><path d="M193.81765,354.89234h-1.75485l-1.44264,-3.12213h-1.0766v3.12213h-1.5826v-8.07447h3.036c0.30862,0 0.60289,0.0646 0.88281,0.19379c0.27991,0.12919 0.52215,0.30683 0.7267,0.53291c0.20455,0.22609 0.36784,0.48985 0.48985,0.7913c0.12201,0.30145 0.18302,0.62443 0.18302,0.96894c0,0.43064 -0.0951,0.82718 -0.2853,1.18964c-0.1902,0.36245 -0.45755,0.65852 -0.80206,0.88819zM191.71828,349.30481c0,-0.10766 -0.01974,-0.21532 -0.05921,-0.32298c-0.03948,-0.10766 -0.09151,-0.20455 -0.15611,-0.29068c-0.0646,-0.08613 -0.14175,-0.15611 -0.23147,-0.20994c-0.08972,-0.05383 -0.18123,-0.08074 -0.27453,-0.08074h-1.4534v1.77638h1.4534c0.0933,0 0.18482,-0.02691 0.27453,-0.08074c0.08972,-0.05383 0.16687,-0.12201 0.23147,-0.20455c0.0646,-0.08254 0.11663,-0.17584 0.15611,-0.27991c0.03948,-0.10407 0.05921,-0.20635 0.05921,-0.30683z" data-paper-data="{&quot;glyphName&quot;:&quot;R&quot;,&quot;glyphIndex&quot;:8,&quot;word&quot;:2}" style="fill: rgb(255, 255, 255);"></path><path d="M204.82472,354.89234h-4.554v-8.07447h4.554v1.49647h-2.93911v1.86251h2.5946v1.35651h-2.5946v1.86251h2.93911z" data-paper-data="{&quot;glyphName&quot;:&quot;E&quot;,&quot;glyphIndex&quot;:9,&quot;lastGlyphOfWord&quot;:true,&quot;word&quot;:2}" style="fill: rgb(255, 255, 255);"></path><path d="M219.62491,354.89234h-1.61489v-8.07447h1.61489z" data-paper-data="{&quot;glyphName&quot;:&quot;I&quot;,&quot;glyphIndex&quot;:10,&quot;firstGlyphOfWord&quot;:true,&quot;word&quot;:3}" style="fill: rgb(255, 255, 255);"></path><path d="M230.92946,352.51306c0,0.36604 -0.06998,0.69979 -0.20994,1.00123c-0.13996,0.30145 -0.33016,0.56342 -0.5706,0.78591c-0.24044,0.2225 -0.51856,0.39475 -0.83436,0.51677c-0.3158,0.12201 -0.64955,0.18302 -1.00123,0.18302c-0.32298,0 -0.62084,-0.05024 -0.89357,-0.15072c-0.27274,-0.10048 -0.51677,-0.24223 -0.73208,-0.42526c-0.21532,-0.18302 -0.40013,-0.40193 -0.55445,-0.65672c-0.15431,-0.25479 -0.27094,-0.53291 -0.34989,-0.83436l1.44264,-0.66749c0.07177,0.27991 0.19738,0.52574 0.37681,0.73747c0.17943,0.21173 0.42705,0.3176 0.74285,0.3176c0.10766,0 0.2225,-0.01974 0.34451,-0.05921c0.12201,-0.03948 0.23147,-0.0933 0.32836,-0.16149c0.09689,-0.06818 0.17764,-0.15252 0.24223,-0.253c0.0646,-0.10048 0.09689,-0.21173 0.09689,-0.33374c0,-0.17226 -0.07716,-0.3176 -0.23147,-0.43602c-0.15431,-0.11843 -0.3463,-0.23147 -0.57598,-0.33913c-0.22967,-0.10766 -0.48088,-0.2225 -0.75362,-0.34451c-0.27274,-0.12201 -0.52394,-0.27633 -0.75362,-0.46294c-0.22967,-0.18661 -0.42167,-0.41808 -0.57598,-0.6944c-0.15431,-0.27633 -0.23147,-0.62263 -0.23147,-1.03891c0,-0.32298 0.05921,-0.63519 0.17764,-0.93664c0.11843,-0.30145 0.28171,-0.56701 0.48985,-0.79668c0.20814,-0.22967 0.45576,-0.41269 0.74285,-0.54906c0.28709,-0.13637 0.5993,-0.20455 0.93664,-0.20455c0.55983,0 1.04071,0.15611 1.44264,0.46832c0.40193,0.31221 0.6962,0.7267 0.88281,1.24347l-1.47494,0.68902c-0.05742,-0.19379 -0.15611,-0.36245 -0.29606,-0.506c-0.13996,-0.14355 -0.31401,-0.21532 -0.52215,-0.21532c-0.22967,0 -0.42167,0.07895 -0.57598,0.23685c-0.15431,0.1579 -0.23147,0.3481 -0.23147,0.5706c0,0.17226 0.07716,0.31401 0.23147,0.42526c0.15431,0.11125 0.3463,0.21891 0.57598,0.32298c0.22967,0.10407 0.48088,0.21711 0.75362,0.33913c0.27274,0.12201 0.52394,0.27812 0.75362,0.46832c0.22967,0.1902 0.42167,0.42526 0.57598,0.70517c0.15431,0.27991 0.23147,0.6316 0.23147,1.05506z" data-paper-data="{&quot;glyphName&quot;:&quot;S&quot;,&quot;glyphIndex&quot;:11,&quot;lastGlyphOfWord&quot;:true,&quot;word&quot;:3}" style="fill: rgb(255, 255, 255);"></path><path d="M252.09219,354.89234h-1.67949l-0.64596,-1.5503h-2.86374l-0.63519,1.5503h-1.70102l3.38051,-8.07447h0.77515zM249.22845,352.0286l-0.89357,-2.15319l-0.92587,2.15319z" data-paper-data="{&quot;glyphName&quot;:&quot;A&quot;,&quot;glyphIndex&quot;:12,&quot;firstGlyphOfWord&quot;:true,&quot;lastGlyphOfWord&quot;:true,&quot;word&quot;:4}" style="fill: rgb(255, 255, 255);"></path><path d="M270.73792,352.51306c0,0.36604 -0.06998,0.69979 -0.20994,1.00123c-0.13996,0.30145 -0.33016,0.56342 -0.5706,0.78591c-0.24044,0.2225 -0.51856,0.39475 -0.83436,0.51677c-0.3158,0.12201 -0.64955,0.18302 -1.00123,0.18302c-0.32298,0 -0.62084,-0.05024 -0.89357,-0.15072c-0.27274,-0.10048 -0.51677,-0.24223 -0.73208,-0.42526c-0.21532,-0.18302 -0.40013,-0.40193 -0.55445,-0.65672c-0.15431,-0.25479 -0.27094,-0.53291 -0.34989,-0.83436l1.44264,-0.66749c0.07177,0.27991 0.19738,0.52574 0.37681,0.73747c0.17943,0.21173 0.42705,0.3176 0.74285,0.3176c0.10766,0 0.2225,-0.01974 0.34451,-0.05921c0.12201,-0.03948 0.23147,-0.0933 0.32836,-0.16149c0.09689,-0.06818 0.17764,-0.15252 0.24223,-0.253c0.0646,-0.10048 0.09689,-0.21173 0.09689,-0.33374c0,-0.17226 -0.07716,-0.3176 -0.23147,-0.43602c-0.15431,-0.11843 -0.3463,-0.23147 -0.57598,-0.33913c-0.22967,-0.10766 -0.48088,-0.2225 -0.75362,-0.34451c-0.27274,-0.12201 -0.52394,-0.27633 -0.75362,-0.46294c-0.22967,-0.18661 -0.42167,-0.41808 -0.57598,-0.6944c-0.15431,-0.27633 -0.23147,-0.62263 -0.23147,-1.03891c0,-0.32298 0.05921,-0.63519 0.17764,-0.93664c0.11843,-0.30145 0.28171,-0.56701 0.48985,-0.79668c0.20814,-0.22967 0.45576,-0.41269 0.74285,-0.54906c0.28709,-0.13637 0.5993,-0.20455 0.93664,-0.20455c0.55983,0 1.04071,0.15611 1.44264,0.46832c0.40193,0.31221 0.6962,0.7267 0.88281,1.24347l-1.47494,0.68902c-0.05742,-0.19379 -0.15611,-0.36245 -0.29606,-0.506c-0.13996,-0.14355 -0.31401,-0.21532 -0.52215,-0.21532c-0.22967,0 -0.42167,0.07895 -0.57598,0.23685c-0.15431,0.1579 -0.23147,0.3481 -0.23147,0.5706c0,0.17226 0.07716,0.31401 0.23147,0.42526c0.15431,0.11125 0.3463,0.21891 0.57598,0.32298c0.22967,0.10407 0.48088,0.21711 0.75362,0.33913c0.27274,0.12201 0.52394,0.27812 0.75362,0.46832c0.22967,0.1902 0.42167,0.42526 0.57598,0.70517c0.15431,0.27991 0.23147,0.6316 0.23147,1.05506z" data-paper-data="{&quot;glyphName&quot;:&quot;S&quot;,&quot;glyphIndex&quot;:13,&quot;firstGlyphOfWord&quot;:true,&quot;word&quot;:5}" style="fill: rgb(255, 255, 255);"></path><path d="M283.64119,354.89234h-1.61489v-3.34821h-2.50847v3.34821h-1.61489v-8.07447h1.61489v3.35898h2.50847v-3.35898h1.61489z" data-paper-data="{&quot;glyphName&quot;:&quot;H&quot;,&quot;glyphIndex&quot;:14,&quot;word&quot;:5}" style="fill: rgb(255, 255, 255);"></path><path d="M295.69453,354.89234h-4.554v-8.07447h4.554v1.49647h-2.93911v1.86251h2.5946v1.35651h-2.5946v1.86251h2.93911z" data-paper-data="{&quot;glyphName&quot;:&quot;E&quot;,&quot;glyphIndex&quot;:15,&quot;word&quot;:5}" style="fill: rgb(255, 255, 255);"></path><path d="M306.81764,354.89234h-4.37098v-8.07447h1.61489v6.578h2.75608z" data-paper-data="{&quot;glyphName&quot;:&quot;L&quot;,&quot;glyphIndex&quot;:16,&quot;word&quot;:5}" style="fill: rgb(255, 255, 255);"></path><path d="M317.59612,354.89234h-4.37098v-8.07447h1.61489v6.578h2.75608z" data-paper-data="{&quot;glyphName&quot;:&quot;L&quot;,&quot;glyphIndex&quot;:17,&quot;lastGlyphOfWord&quot;:true,&quot;word&quot;:5}" style="fill: rgb(255, 255, 255);"></path><path d="M336.77745,348.32511h-2.32545v6.56723h-1.62566v-6.56723h-2.32545v-1.50723h6.27655z" data-paper-data="{&quot;glyphName&quot;:&quot;T&quot;,&quot;glyphIndex&quot;:18,&quot;firstGlyphOfWord&quot;:true,&quot;word&quot;:6}" style="fill: rgb(255, 255, 255);"></path><path d="M349.45982,354.89234h-1.61489v-3.34821h-2.50847v3.34821h-1.61489v-8.07447h1.61489v3.35898h2.50847v-3.35898h1.61489z" data-paper-data="{&quot;glyphName&quot;:&quot;H&quot;,&quot;glyphIndex&quot;:19,&quot;word&quot;:6}" style="fill: rgb(255, 255, 255);"></path><path d="M361.51316,354.89234h-4.554v-8.07447h4.554v1.49647h-2.93911v1.86251h2.5946v1.35651h-2.5946v1.86251h2.93911z" data-paper-data="{&quot;glyphName&quot;:&quot;E&quot;,&quot;glyphIndex&quot;:20,&quot;word&quot;:6}" style="fill: rgb(255, 255, 255);"></path><path d="M374.43504,354.89234h-1.75485l-1.44264,-3.12213h-1.0766v3.12213h-1.5826v-8.07447h3.036c0.30862,0 0.60289,0.0646 0.88281,0.19379c0.27991,0.12919 0.52215,0.30683 0.7267,0.53291c0.20455,0.22609 0.36784,0.48985 0.48985,0.7913c0.12201,0.30145 0.18302,0.62443 0.18302,0.96894c0,0.43064 -0.0951,0.82718 -0.2853,1.18964c-0.1902,0.36245 -0.45755,0.65852 -0.80206,0.88819zM372.33567,349.30481c0,-0.10766 -0.01974,-0.21532 -0.05921,-0.32298c-0.03948,-0.10766 -0.09151,-0.20455 -0.15611,-0.29068c-0.0646,-0.08613 -0.14175,-0.15611 -0.23147,-0.20994c-0.08972,-0.05383 -0.18123,-0.08074 -0.27453,-0.08074h-1.4534v1.77638h1.4534c0.0933,0 0.18482,-0.02691 0.27453,-0.08074c0.08972,-0.05383 0.16687,-0.12201 0.23147,-0.20455c0.0646,-0.08254 0.11663,-0.17584 0.15611,-0.27991c0.03948,-0.10407 0.05921,-0.20635 0.05921,-0.30683z" data-paper-data="{&quot;glyphName&quot;:&quot;R&quot;,&quot;glyphIndex&quot;:21,&quot;word&quot;:6}" style="fill: rgb(255, 255, 255);"></path><path d="M385.44211,354.89234h-4.554v-8.07447h4.554v1.49647h-2.93911v1.86251h2.5946v1.35651h-2.5946v1.86251h2.93911z" data-paper-data="{&quot;glyphName&quot;:&quot;E&quot;,&quot;glyphIndex&quot;:22,&quot;word&quot;:6}" style="fill: rgb(255, 255, 255);"></path><path d="M392.28701,346.17192l-0.21532,3.08983h-0.78591l-0.21532,-3.08983z" data-paper-data="{&quot;glyphName&quot;:&quot;'&quot;,&quot;glyphIndex&quot;:23,&quot;word&quot;:6}" style="fill: rgb(255, 255, 255);"></path><path d="M403.04853,352.51306c0,0.36604 -0.06998,0.69979 -0.20994,1.00123c-0.13996,0.30145 -0.33016,0.56342 -0.5706,0.78591c-0.24044,0.2225 -0.51856,0.39475 -0.83436,0.51677c-0.3158,0.12201 -0.64955,0.18302 -1.00123,0.18302c-0.32298,0 -0.62084,-0.05024 -0.89357,-0.15072c-0.27274,-0.10048 -0.51677,-0.24223 -0.73208,-0.42526c-0.21532,-0.18302 -0.40013,-0.40193 -0.55445,-0.65672c-0.15431,-0.25479 -0.27094,-0.53291 -0.34989,-0.83436l1.44264,-0.66749c0.07177,0.27991 0.19738,0.52574 0.37681,0.73747c0.17943,0.21173 0.42705,0.3176 0.74285,0.3176c0.10766,0 0.2225,-0.01974 0.34451,-0.05921c0.12201,-0.03948 0.23147,-0.0933 0.32836,-0.16149c0.09689,-0.06818 0.17764,-0.15252 0.24223,-0.253c0.0646,-0.10048 0.09689,-0.21173 0.09689,-0.33374c0,-0.17226 -0.07716,-0.3176 -0.23147,-0.43602c-0.15431,-0.11843 -0.3463,-0.23147 -0.57598,-0.33913c-0.22967,-0.10766 -0.48088,-0.2225 -0.75362,-0.34451c-0.27274,-0.12201 -0.52394,-0.27633 -0.75362,-0.46294c-0.22967,-0.18661 -0.42167,-0.41808 -0.57598,-0.6944c-0.15431,-0.27633 -0.23147,-0.62263 -0.23147,-1.03891c0,-0.32298 0.05921,-0.63519 0.17764,-0.93664c0.11843,-0.30145 0.28171,-0.56701 0.48985,-0.79668c0.20814,-0.22967 0.45576,-0.41269 0.74285,-0.54906c0.28709,-0.13637 0.5993,-0.20455 0.93664,-0.20455c0.55983,0 1.04071,0.15611 1.44264,0.46832c0.40193,0.31221 0.6962,0.7267 0.88281,1.24347l-1.47494,0.68902c-0.05742,-0.19379 -0.15611,-0.36245 -0.29606,-0.506c-0.13996,-0.14355 -0.31401,-0.21532 -0.52215,-0.21532c-0.22967,0 -0.42167,0.07895 -0.57598,0.23685c-0.15431,0.1579 -0.23147,0.3481 -0.23147,0.5706c0,0.17226 0.07716,0.31401 0.23147,0.42526c0.15431,0.11125 0.3463,0.21891 0.57598,0.32298c0.22967,0.10407 0.48088,0.21711 0.75362,0.33913c0.27274,0.12201 0.52394,0.27812 0.75362,0.46832c0.22967,0.1902 0.42167,0.42526 0.57598,0.70517c0.15431,0.27991 0.23147,0.6316 0.23147,1.05506z" data-paper-data="{&quot;glyphName&quot;:&quot;S&quot;,&quot;glyphIndex&quot;:24,&quot;lastGlyphOfWord&quot;:true,&quot;word&quot;:6}" style="fill: rgb(255, 255, 255);"></path><path d="M424.21126,354.89234h-1.67949l-0.64596,-1.5503h-2.86374l-0.63519,1.5503h-1.70102l3.38051,-8.07447h0.77515zM421.34752,352.0286l-0.89357,-2.15319l-0.92587,2.15319z" data-paper-data="{&quot;glyphName&quot;:&quot;A&quot;,&quot;glyphIndex&quot;:25,&quot;firstGlyphOfWord&quot;:true,&quot;lastGlyphOfWord&quot;:true,&quot;word&quot;:7}" style="fill: rgb(255, 255, 255);"></path><path d="M449.85188,346.81787l-3.96187,8.07447h-0.83974l-1.10889,-2.22855l-1.08736,2.22855h-0.83974l-3.9834,-8.07447h1.83021l2.62689,5.32915l0.59213,-1.22732l-2.01323,-4.10183h1.72255l1.15196,2.35774l1.17349,-2.35774h1.71179l-2.024,4.10183l0.60289,1.23808l2.62689,-5.33991z" data-paper-data="{&quot;glyphName&quot;:&quot;W&quot;,&quot;glyphIndex&quot;:26,&quot;firstGlyphOfWord&quot;:true,&quot;word&quot;:8}" style="fill: rgb(255, 255, 255);"></path><path d="M462.65265,354.89234h-1.67949l-0.64596,-1.5503h-2.86374l-0.63519,1.5503h-1.70102l3.38051,-8.07447h0.77515zM459.7889,352.0286l-0.89357,-2.15319l-0.92587,2.15319z" data-paper-data="{&quot;glyphName&quot;:&quot;A&quot;,&quot;glyphIndex&quot;:27,&quot;word&quot;:8}" style="fill: rgb(255, 255, 255);"></path><path d="M474.25473,346.81787l-2.71302,4.27408v3.80038h-1.61489v-3.80038l-2.70225,-4.27408h1.93787l1.57183,2.4977l1.5826,-2.4977z" data-paper-data="{&quot;glyphName&quot;:&quot;Y&quot;,&quot;glyphIndex&quot;:28,&quot;lastGlyphOfWord&quot;:true,&quot;word&quot;:8}" style="fill: rgb(255, 255, 255);"></path></g><g data-paper-data="{&quot;isPrimaryText&quot;:true}" fill-rule="nonzero" style="fill: rgb(255, 255, 255);"><path d="M98.76757,317.47004v-6.88856h-0.72511l-0.2417,0.36256c-0.66469,1.20852 -3.20258,2.05448 -6.2843,2.05448h-6.64686v-16.07332h8.64092c3.62556,0 6.88856,1.51065 8.27836,3.74641l0.42298,0.66469h0.66469v-6.10303h-27.13127v0.90639c1.57108,0 2.41704,1.26895 2.41704,3.92769v30.213c0,2.65874 -0.84596,3.92769 -2.41704,3.92769v0.90639h27.1917l0.18128,-0.84596c0.2417,-1.57108 0.60426,-3.68599 0.90639,-5.25706h-0.66469l-0.54383,0.66469c-1.81278,2.23576 -5.31749,3.74641 -8.94305,3.74641h-9.00347v-18.73206h6.64686c3.08173,0 5.55919,0.96682 6.2843,2.35661l0.2417,0.42298z" data-paper-data="{&quot;glyphName&quot;:&quot;E&quot;,&quot;glyphIndex&quot;:0,&quot;firstGlyphOfWord&quot;:true,&quot;word&quot;:1}" style="fill: rgb(255, 255, 255);"></path><path d="M109.82553,296.13966c1.57108,0 2.41704,1.26895 2.41704,3.92769v30.213c0,2.65874 -0.84596,3.92769 -2.41704,3.92769v0.90639h17.76524c11.78307,0 19.63845,-7.97623 19.63845,-19.94058c0,-11.96435 -8.70134,-19.94058 -21.81379,-19.94058h-15.58991zM118.94986,333.4225v-36.4973h6.46558c9.0639,0 15.1065,7.31155 15.1065,18.24865c0,10.93711 -5.19664,18.24865 -12.93116,18.24865z" data-paper-data="{&quot;glyphName&quot;:&quot;D&quot;,&quot;glyphIndex&quot;:1,&quot;word&quot;:1}" style="fill: rgb(255, 255, 255);"></path><path d="M186.20399,295.23327h-7.6741v0.90639h0.42298c1.3898,0 2.35661,1.57108 2.47747,3.98812l-0.06043,22.96188c0,5.92175 -3.14215,9.90986 -11.17881,9.90986c-6.58643,0 -9.12433,-3.86726 -9.12433,-9.72859v-23.26401c0,-2.65874 0.84596,-3.92769 2.41704,-3.92769v-0.90639h-11.54137v0.90639c1.57108,0 2.41704,1.26895 2.41704,3.92769v21.93464c0,8.03666 4.16939,13.41457 14.80437,13.41457c10.27242,0 14.26054,-4.6528 14.26054,-11.60179v-23.14316c0,-2.71917 0.96682,-4.53195 2.35661,-4.53195h0.42298z" data-paper-data="{&quot;glyphName&quot;:&quot;U&quot;,&quot;glyphIndex&quot;:2,&quot;word&quot;:1}" style="fill: rgb(255, 255, 255);"></path><path d="M230.43583,304.05547v-5.55919c-3.68599,-2.11491 -9.78901,-3.56513 -15.22735,-3.56513c-13.05202,0 -21.75336,8.09708 -21.75336,20.24271c0,12.14563 8.70134,20.24271 21.75336,20.24271c5.43834,0 11.54137,-1.45022 15.22735,-3.56513l-0.48341,-0.78554l0.42298,0.78554v-5.55919h-0.78554c-0.2417,0.42298 -0.54383,0.90639 -0.78554,1.32937c-2.23576,3.80684 -7.55325,6.10303 -13.7167,6.10303c-8.58049,0 -14.32096,-7.4324 -14.32096,-18.55078c0,-11.11838 5.74047,-18.55078 14.32096,-18.55078c0.30213,0 4.35067,0.12085 4.35067,0.30213c3.86726,0.54383 7.61368,2.84002 9.3056,5.8009c0.2417,0.42298 0.54383,0.90639 0.78554,1.32937z" data-paper-data="{&quot;glyphName&quot;:&quot;C&quot;,&quot;glyphIndex&quot;:3,&quot;word&quot;:1}" style="fill: rgb(255, 255, 255);"></path><path d="M259.56116,335.11443h12.44776v-0.90639c-1.51065,0 -2.7796,-1.26895 -3.86726,-3.68599l-15.3482,-36.19517h-1.69193l-13.11244,36.31603c-0.96682,2.41704 -2.17534,3.62556 -3.80684,3.62556v0.90639h7.91581v-0.90639h-0.48341c-1.6315,0 -2.11491,-1.75235 -1.26895,-4.4111l3.0213,-8.70134h13.53542c1.20852,3.08173 2.53789,6.22388 3.74641,9.24518c0.96682,2.35661 0.66469,3.92769 -0.78554,3.92769h-0.42298zM256.23773,319.4641h-12.26648l5.61962,-16.19417z" data-paper-data="{&quot;glyphName&quot;:&quot;A&quot;,&quot;glyphIndex&quot;:4,&quot;word&quot;:1}" style="fill: rgb(255, 255, 255);"></path><path d="M274.84894,296.13966c1.57108,0 2.41704,1.26895 2.41704,3.92769v30.213c0,2.65874 -0.84596,3.92769 -2.41704,3.92769v0.90639h11.54137v-0.90639c-1.57108,0 -2.41704,-1.26895 -2.41704,-3.92769v-14.07926h4.35067c1.6315,2.29619 4.83408,6.76771 8.94305,12.50818c4.4111,6.16345 4.89451,6.40516 12.26648,6.40516h2.35661v-1.32937c-2.65874,0 -2.7796,-0.06043 -5.49877,-3.80684c-5.13621,-7.25112 -9.00347,-12.44776 -10.57455,-14.50224c5.86132,-1.45022 9.48688,-5.07578 9.48688,-9.97029c0,-6.16345 -5.68004,-10.27242 -14.20011,-10.27242h-16.31502zM289.6533,314.50916h-5.74047v-17.58397h7.19069c4.29025,0 7.13027,3.44428 7.13027,8.58049c0,5.37791 -3.44428,9.00347 -8.58049,9.00347z" data-paper-data="{&quot;glyphName&quot;:&quot;R&quot;,&quot;glyphIndex&quot;:5,&quot;word&quot;:1}" style="fill: rgb(255, 255, 255);"></path><path d="M314.18626,296.13966c1.57108,0 2.41704,1.26895 2.41704,3.92769v30.213c0,2.65874 -0.84596,3.92769 -2.41704,3.92769v0.90639h17.76524c11.78307,0 19.63845,-7.97623 19.63845,-19.94058c0,-11.96435 -8.70134,-19.94058 -21.81379,-19.94058h-15.58991zM323.31059,333.4225v-36.4973h6.46558c9.0639,0 15.1065,7.31155 15.1065,18.24865c0,10.93711 -5.19664,18.24865 -12.93116,18.24865z" data-paper-data="{&quot;glyphName&quot;:&quot;D&quot;,&quot;glyphIndex&quot;:6,&quot;word&quot;:1}" style="fill: rgb(255, 255, 255);"></path><path d="M364.82325,315.17385c0,-10.03072 4.29025,-18.55078 12.62903,-18.55078c8.27836,0 12.56861,8.52007 12.56861,18.55078c0,10.03072 -4.29025,18.55078 -12.56861,18.55078c-8.33879,0 -12.62903,-8.52007 -12.62903,-18.55078zM357.39085,315.17385c0,10.93711 6.82814,20.24271 20.06143,20.24271c13.17287,0 20.00101,-9.3056 20.00101,-20.24271c0,-10.93711 -6.82814,-20.24271 -20.00101,-20.24271c-13.23329,0 -20.06143,9.3056 -20.06143,20.24271z" data-paper-data="{&quot;glyphName&quot;:&quot;O&quot;,&quot;glyphIndex&quot;:7,&quot;word&quot;:1}" style="fill: rgb(255, 255, 255);"></path><path d="M426.15564,303.81376v-6.0426c-2.96087,-1.69193 -7.00942,-2.84002 -10.21199,-2.84002c-7.73453,0 -12.93116,4.83408 -12.93116,12.0852c0,4.53195 3.98812,8.8222 10.03072,10.75583c6.52601,2.05448 10.87668,5.68004 10.87668,9.00347c0,4.16939 -3.32343,6.94899 -8.27836,6.94899c-0.84596,0 -1.75235,-0.06043 -2.65874,-0.18128c-3.50471,-0.60426 -6.82814,-2.7796 -8.45964,-5.61962c-0.2417,-0.42298 -0.54383,-0.90639 -0.78554,-1.32937h-0.78554v6.0426c2.96087,1.69193 8.03666,2.84002 12.74989,2.84002c7.85538,0 13.05202,-4.59238 13.05202,-11.42051c0,-4.83408 -4.16939,-9.42646 -10.4537,-11.42051c-6.34473,-1.99406 -10.57455,-5.31749 -10.57455,-8.21794c0,-4.6528 3.20258,-7.79495 7.97623,-7.79495c0,0 2.53789,0.2417 2.47747,0.36256c2.29619,0.54383 4.71323,2.47747 6.0426,4.83408c0.36256,0.60426 0.84596,1.45022 1.20852,2.05448z" data-paper-data="{&quot;glyphName&quot;:&quot;S&quot;,&quot;glyphIndex&quot;:8,&quot;word&quot;:1}" style="fill: rgb(255, 255, 255);"></path><path d="M441.62469,315.17385c0,-10.03072 4.29025,-18.55078 12.62903,-18.55078c8.27836,0 12.56861,8.52007 12.56861,18.55078c0,10.03072 -4.29025,18.55078 -12.56861,18.55078c-8.33879,0 -12.62903,-8.52007 -12.62903,-18.55078zM434.19229,315.17385c0,10.93711 6.82814,20.24271 20.06143,20.24271c13.17287,0 20.00101,-9.3056 20.00101,-20.24271c0,-10.93711 -6.82814,-20.24271 -20.00101,-20.24271c-13.23329,0 -20.06143,9.3056 -20.06143,20.24271z" data-paper-data="{&quot;glyphName&quot;:&quot;O&quot;,&quot;glyphIndex&quot;:9,&quot;lastGlyphOfWord&quot;:true,&quot;word&quot;:1}" style="fill: rgb(255, 255, 255);"></path></g><g data-paper-data="{&quot;isIcon&quot;:&quot;true&quot;,&quot;iconType&quot;:&quot;icon&quot;,&quot;rawIconId&quot;:&quot;37726&quot;,&quot;selectedEffects&quot;:{&quot;container&quot;:&quot;&quot;,&quot;transformation&quot;:&quot;&quot;,&quot;pattern&quot;:&quot;&quot;},&quot;isDetailed&quot;:false,&quot;fillRule&quot;:&quot;evenodd&quot;,&quot;bounds&quot;:{&quot;x&quot;:199.57794996799467,&quot;y&quot;:115.00000000000003,&quot;width&quot;:150.84410006401058,&quot;height&quot;:150.56901323468307},&quot;iconStyle&quot;:&quot;standalone&quot;,&quot;suitableAsStandaloneIcon&quot;:true}" fill-rule="evenodd" style="fill: rgb(255, 255, 255);"><path d="M332.52859,141.67425l-8.83049,8.83049c8.93164,10.87484 14.29985,24.77896 14.29985,39.91642c0,15.1357 -5.37176,29.03626 -14.30163,39.9111l-11.34866,-11.34866c6.06741,-7.91833 9.67875,-17.81537 9.67875,-28.56243c0,-23.86503 -17.78342,-43.56503 -40.81793,-46.60673l0.00177,-16.07802c12.71512,1.2511 24.3353,6.28924 33.7035,13.9822l8.83049,-8.83049c-13.14813,-11.14991 -30.15604,-17.88813 -48.74514,-17.88813c-41.65378,0 -75.42116,33.76739 -75.42116,75.42116c0,39.5615 30.46483,71.98373 69.21001,75.14609v-12.45603c-31.83305,-3.13042 -56.78769,-30.04602 -56.78769,-62.69007c0,-32.6405 24.95464,-59.55964 56.78592,-62.69007v16.07624c-20.99725,2.77372 -37.62007,19.40187 -40.3938,40.40267h12.5909c2.93876,-16.12238 17.0576,-28.39385 34.01583,-28.39385c19.08067,0 34.605,15.52434 34.605,34.605c0,19.08067 -15.52434,34.605 -34.605,34.605c-16.95822,0 -31.07707,-12.27147 -34.01583,-28.39385h-12.5909c3.04169,23.03451 22.7417,40.81616 46.60673,40.81616c10.74885,0 20.64765,-3.61312 28.56599,-9.67875l11.34689,11.34512c-9.36997,7.69296 -20.98305,12.74706 -33.69995,13.99817v12.45603c38.74518,-3.16059 69.21001,-35.58459 69.21001,-75.14609c-0.00177,-18.59264 -6.74177,-35.60056 -17.89345,-48.74869zM293.41074,190.42116c0,0.30133 -0.00739,0.60248 -0.02218,0.90346c-0.01479,0.30097 -0.03697,0.60136 -0.06654,0.90115c-0.02946,0.29991 -0.06631,0.59887 -0.11056,0.89689c-0.04425,0.29814 -0.09577,0.59497 -0.15457,0.8905c-0.05868,0.29553 -0.12463,0.58941 -0.19787,0.88163c-0.07323,0.29234 -0.15357,0.58267 -0.241,0.87098c-0.08755,0.28832 -0.18208,0.57432 -0.28359,0.85802c-0.10151,0.2837 -0.20988,0.56475 -0.32511,0.84312c-0.11535,0.27838 -0.23744,0.5538 -0.36628,0.82626c-0.12884,0.27234 -0.2643,0.54138 -0.40639,0.8071c-0.14197,0.26584 -0.29044,0.52795 -0.44543,0.78634c-0.15486,0.2585 -0.316,0.51298 -0.4834,0.76344c-0.16741,0.25057 -0.34085,0.4969 -0.52031,0.73895c-0.17947,0.24194 -0.3648,0.47938 -0.55599,0.71233c-0.19119,0.23295 -0.38793,0.46105 -0.59024,0.68429c-0.20243,0.22325 -0.41018,0.44141 -0.62324,0.65447c-0.21307,0.21307 -0.43123,0.42082 -0.65447,0.62324c-0.22325,0.2023 -0.45134,0.39905 -0.68429,0.59024c-0.23295,0.19119 -0.47039,0.37651 -0.71233,0.55599c-0.24206,0.17947 -0.48837,0.35291 -0.73895,0.52031c-0.25045,0.16741 -0.50494,0.32854 -0.76344,0.4834c-0.25838,0.15498 -0.5205,0.30346 -0.78634,0.44543c-0.26572,0.14209 -0.53475,0.27755 -0.8071,0.40639c-0.27246,0.12884 -0.54788,0.25093 -0.82626,0.36628c-0.27838,0.11523 -0.55942,0.2236 -0.84312,0.32511c-0.2837,0.10151 -0.56971,0.19604 -0.85802,0.28359c-0.28832,0.08743 -0.57865,0.16776 -0.87098,0.241c-0.29222,0.07323 -0.5861,0.13919 -0.88163,0.19787c-0.29553,0.0588 -0.59236,0.11032 -0.8905,0.15457c-0.29802,0.04425 -0.59698,0.0811 -0.89689,0.11056c-0.2998,0.02958 -0.60018,0.05176 -0.90115,0.06654c-0.30097,0.01479 -0.60212,0.02218 -0.90346,0.02218c-0.30133,0 -0.60248,-0.00739 -0.90346,-0.02218c-0.30097,-0.01479 -0.60136,-0.03697 -0.90115,-0.06654c-0.29991,-0.02946 -0.59887,-0.06631 -0.89689,-0.11056c-0.29814,-0.04425 -0.59497,-0.09577 -0.8905,-0.15457c-0.29553,-0.05868 -0.58941,-0.12463 -0.88163,-0.19787c-0.29234,-0.07323 -0.58267,-0.15357 -0.87098,-0.241c-0.28832,-0.08755 -0.57432,-0.18208 -0.85802,-0.28359c-0.2837,-0.10151 -0.56475,-0.20988 -0.84312,-0.32511c-0.27838,-0.11535 -0.5538,-0.23744 -0.82626,-0.36628c-0.27234,-0.12884 -0.54138,-0.2643 -0.8071,-0.40639c-0.26584,-0.14197 -0.52795,-0.29044 -0.78634,-0.44543c-0.2585,-0.15486 -0.51298,-0.316 -0.76344,-0.4834c-0.25057,-0.16741 -0.4969,-0.34085 -0.73895,-0.52031c-0.24194,-0.17947 -0.47938,-0.3648 -0.71233,-0.55599c-0.23295,-0.19119 -0.46105,-0.38793 -0.68429,-0.59024c-0.22325,-0.20243 -0.44141,-0.41018 -0.65447,-0.62324c-0.21307,-0.21307 -0.42082,-0.43123 -0.62324,-0.65447c-0.2023,-0.22325 -0.39905,-0.45134 -0.59024,-0.68429c-0.19119,-0.23295 -0.37651,-0.47039 -0.55599,-0.71233c-0.17947,-0.24206 -0.35291,-0.48837 -0.52031,-0.73895c-0.16741,-0.25045 -0.32854,-0.50494 -0.4834,-0.76344c-0.15498,-0.25838 -0.30346,-0.5205 -0.44543,-0.78634c-0.14209,-0.26572 -0.27755,-0.53475 -0.40639,-0.8071c-0.12884,-0.27246 -0.25093,-0.54788 -0.36628,-0.82626c-0.11523,-0.27838 -0.2236,-0.55942 -0.32511,-0.84312c-0.10151,-0.2837 -0.19604,-0.56971 -0.28359,-0.85802c-0.08743,-0.28832 -0.16776,-0.57865 -0.241,-0.87098c-0.07323,-0.29222 -0.13919,-0.5861 -0.19787,-0.88163c-0.0588,-0.29553 -0.11032,-0.59236 -0.15457,-0.8905c-0.04425,-0.29802 -0.0811,-0.59698 -0.11056,-0.89689c-0.02958,-0.2998 -0.05176,-0.60018 -0.06654,-0.90115c-0.01479,-0.30097 -0.02218,-0.60212 -0.02218,-0.90346c0,-0.30133 0.00739,-0.60248 0.02218,-0.90346c0.01479,-0.30097 0.03697,-0.60136 0.06654,-0.90115c0.02946,-0.29991 0.06631,-0.59887 0.11056,-0.89689c0.04425,-0.29814 0.09577,-0.59497 0.15457,-0.8905c0.05868,-0.29553 0.12463,-0.58941 0.19787,-0.88163c0.07323,-0.29234 0.15357,-0.58267 0.241,-0.87098c0.08755,-0.28832 0.18208,-0.57432 0.28359,-0.85802c0.10151,-0.2837 0.20988,-0.56475 0.32511,-0.84312c0.11535,-0.27838 0.23744,-0.5538 0.36628,-0.82626c0.12884,-0.27234 0.2643,-0.54138 0.40639,-0.8071c0.14197,-0.26584 0.29044,-0.52795 0.44543,-0.78634c0.15486,-0.2585 0.316,-0.51298 0.4834,-0.76344c0.16741,-0.25057 0.34085,-0.4969 0.52031,-0.73895c0.17947,-0.24194 0.3648,-0.47938 0.55599,-0.71233c0.19119,-0.23295 0.38793,-0.46105 0.59024,-0.68429c0.20243,-0.22325 0.41018,-0.44141 0.62324,-0.65447c0.21307,-0.21307 0.43123,-0.42082 0.65447,-0.62324c0.22325,-0.2023 0.45134,-0.39905 0.68429,-0.59024c0.23295,-0.19119 0.47039,-0.37651 0.71233,-0.55599c0.24206,-0.17947 0.48837,-0.35291 0.73895,-0.52031c0.25045,-0.16741 0.50494,-0.32854 0.76344,-0.4834c0.25838,-0.15498 0.5205,-0.30346 0.78634,-0.44543c0.26572,-0.14209 0.53475,-0.27755 0.8071,-0.40639c0.27246,-0.12884 0.54788,-0.25093 0.82626,-0.36628c0.27838,-0.11523 0.55942,-0.2236 0.84312,-0.32511c0.2837,-0.10151 0.56971,-0.19604 0.85802,-0.28359c0.28832,-0.08743 0.57865,-0.16776 0.87098,-0.241c0.29222,-0.07323 0.5861,-0.13919 0.88163,-0.19787c0.29553,-0.0588 0.59236,-0.11032 0.8905,-0.15457c0.29802,-0.04425 0.59698,-0.0811 0.89689,-0.11056c0.2998,-0.02958 0.60018,-0.05176 0.90115,-0.06654c0.30097,-0.01479 0.60212,-0.02218 0.90346,-0.02218c0.30133,0 0.60248,0.00739 0.90346,0.02218c0.30097,0.01479 0.60136,0.03697 0.90115,0.06654c0.29991,0.02946 0.59887,0.06631 0.89689,0.11056c0.29814,0.04425 0.59497,0.09577 0.8905,0.15457c0.29553,0.05868 0.58941,0.12463 0.88163,0.19787c0.29234,0.07323 0.58267,0.15357 0.87098,0.241c0.28832,0.08755 0.57432,0.18208 0.85802,0.28359c0.2837,0.10151 0.56475,0.20988 0.84312,0.32511c0.27838,0.11535 0.5538,0.23744 0.82626,0.36628c0.27234,0.12884 0.54138,0.2643 0.8071,0.40639c0.26584,0.14197 0.52795,0.29044 0.78634,0.44543c0.2585,0.15486 0.51298,0.316 0.76344,0.4834c0.25057,0.16741 0.4969,0.34085 0.73895,0.52031c0.24194,0.17947 0.47938,0.3648 0.71233,0.55599c0.23295,0.19119 0.46105,0.38793 0.68429,0.59024c0.22325,0.20243 0.44141,0.41018 0.65447,0.62324c0.21307,0.21307 0.42082,0.43123 0.62324,0.65447c0.2023,0.22325 0.39905,0.45134 0.59024,0.68429c0.19119,0.23295 0.37651,0.47039 0.55599,0.71233c0.17947,0.24206 0.35291,0.48837 0.52031,0.73895c0.16741,0.25045 0.32854,0.50494 0.4834,0.76344c0.15498,0.25838 0.30346,0.5205 0.44543,0.78634c0.14209,0.26572 0.27755,0.53475 0.40639,0.8071c0.12884,0.27246 0.25093,0.54788 0.36628,0.82626c0.11523,0.27838 0.2236,0.55942 0.32511,0.84312c0.10151,0.2837 0.19604,0.56971 0.28359,0.85802c0.08743,0.28832 0.16776,0.57865 0.241,0.87098c0.07323,0.29222 0.13919,0.5861 0.19787,0.88163c0.0588,0.29553 0.11032,0.59236 0.15457,0.8905c0.04425,0.29802 0.0811,0.59698 0.11056,0.89689c0.02958,0.2998 0.05176,0.60018 0.06654,0.90115c0.01479,0.30097 0.02218,0.60212 0.02218,0.90346z" data-paper-data="{&quot;isPathIcon&quot;:true}" style="fill: rgb(255, 255, 255);"></path></g></g></g></svg>